<?xml version="1.0" standalone="no"?>
<!DOCTYPE svg PUBLIC "-//W3C//DTD SVG 20010904//EN"
 "http://www.w3.org/TR/2001/REC-SVG-20010904/DTD/svg10.dtd">
<svg version="1.0" xmlns="http://www.w3.org/2000/svg"
 width="1280.000000pt" height="848.000000pt" viewBox="0 0 1280.000000 848.000000"
 preserveAspectRatio="xMidYMid meet">
<g transform="translate(0.000000,848.000000) scale(0.100000,-0.100000)"
fill="#0e2267" stroke="none">
<path d="M9020 8240 c-19 -4 -91 -18 -159 -31 -146 -27 -186 -49 -269 -150
-79 -95 -83 -108 -88 -228 -5 -103 -4 -109 26 -166 16 -33 30 -67 30 -75 0 -8
-10 -54 -22 -103 -21 -88 -21 -90 -4 -200 9 -62 26 -152 37 -202 11 -49 22
-100 25 -112 4 -21 77 -73 123 -88 22 -7 23 -11 17 -59 -3 -28 -6 -68 -6 -88
0 -21 -5 -38 -11 -38 -6 0 -47 -25 -90 -55 -43 -30 -83 -55 -88 -55 -5 0 -11
-3 -13 -8 -5 -13 -102 -69 -138 -81 -19 -5 -65 -15 -103 -21 -37 -6 -93 -20
-124 -32 -63 -23 -150 -97 -155 -130 -2 -12 -24 -35 -53 -54 -27 -18 -68 -48
-89 -66 -63 -54 -77 -61 -118 -63 -21 -1 -47 -10 -57 -19 -9 -9 -33 -16 -52
-16 -19 0 -45 -7 -57 -16 -12 -8 -25 -13 -30 -11 -9 6 -70 -5 -227 -41 -191
-44 -475 -82 -689 -91 -21 0 -63 -8 -93 -17 -54 -16 -55 -15 -92 9 -68 45
-135 74 -223 95 -71 18 -96 20 -139 12 -28 -6 -67 -10 -86 -10 -18 0 -51 -9
-73 -20 -22 -11 -57 -20 -79 -20 -54 0 -71 -8 -71 -35 0 -28 22 -53 56 -61 13
-3 24 -9 24 -13 0 -9 -139 -31 -190 -31 -19 0 -54 -8 -77 -17 -35 -15 -43 -23
-43 -44 0 -47 20 -54 123 -41 175 22 213 24 197 13 -8 -6 -35 -13 -60 -17 -25
-3 -60 -10 -78 -16 -18 -5 -58 -11 -90 -12 -72 -2 -108 -24 -117 -73 l-6 -36
-212 7 c-117 3 -329 9 -473 12 l-260 7 -12 -29 c-6 -16 -15 -46 -21 -67 -17
-65 -55 -440 -48 -469 5 -20 16 -30 44 -37 20 -6 218 -20 440 -33 222 -12 409
-25 415 -29 13 -8 13 -101 0 -159 -8 -34 -9 -35 -64 -38 -31 -2 -197 7 -369
18 -541 36 -505 35 -517 14 -14 -26 -72 -433 -76 -529 -1 -37 1 -40 35 -52 51
-17 161 -30 399 -48 179 -14 481 -44 487 -49 7 -5 -53 -312 -62 -324 -2 -3
-505 42 -905 81 -69 7 -150 9 -180 5 -30 -4 -140 -12 -245 -18 -244 -13 -254
-15 -266 -46 -8 -23 -13 -25 -42 -18 -38 9 -332 8 -540 -1 -179 -9 -197 -17
-197 -94 0 -83 8 -86 268 -111 123 -12 320 -30 439 -40 198 -17 217 -20 240
-42 l25 -23 -4 -712 c-2 -392 -6 -714 -9 -717 -15 -15 -172 -50 -239 -54 -41
-2 -78 -8 -81 -13 -3 -5 -32 -14 -64 -19 -79 -13 -122 -28 -129 -45 -3 -8 -18
-15 -33 -15 -16 0 -60 -9 -98 -20 -113 -33 -190 -50 -365 -80 -91 -16 -231
-45 -310 -65 -80 -20 -167 -41 -195 -47 -27 -5 -59 -18 -70 -28 -12 -11 -66
-28 -138 -43 -64 -14 -128 -32 -142 -41 -13 -9 -35 -16 -48 -16 -31 0 -51 -23
-42 -50 6 -20 4 -21 -42 -15 -26 4 -62 10 -79 15 -59 15 -407 -60 -498 -107
-16 -8 -77 -25 -137 -37 -109 -23 -159 -45 -159 -71 0 -11 -13 -15 -55 -15
-31 0 -81 -9 -113 -21 -31 -11 -97 -31 -146 -44 -49 -13 -97 -32 -107 -41 -15
-14 -25 -14 -69 -5 -47 10 -65 7 -228 -34 -97 -25 -187 -48 -200 -51 l-22 -6
0 -549 0 -549 6400 0 6400 0 0 710 0 710 -47 0 c-27 1 -96 3 -154 5 -81 4
-115 1 -142 -10 -53 -22 -120 -20 -142 5 -21 23 -64 30 -220 35 -66 2 -148 6
-183 10 -77 9 -146 -10 -217 -60 -70 -50 -81 -45 -40 20 19 30 35 58 35 64 0
22 -171 54 -290 56 l-55 0 -7 48 c-11 83 -27 324 -38 587 -5 140 -12 303 -15
362 -6 106 -6 107 17 113 13 2 106 18 208 35 102 17 196 36 210 42 14 6 85 12
160 13 108 1 166 8 289 33 85 17 159 36 165 42 11 11 24 93 25 157 1 41 0 42
-46 57 -27 8 -111 22 -188 30 -77 9 -266 29 -420 46 -154 17 -304 34 -333 37
-29 3 -54 9 -56 12 -4 6 21 191 45 334 l11 67 46 0 c26 0 294 -25 596 -54 301
-30 556 -52 565 -49 30 11 51 36 61 72 21 80 101 645 95 672 -4 16 -16 36 -28
44 -48 31 -98 36 -781 85 -231 16 -421 32 -423 34 -3 3 1 54 8 115 10 90 16
111 28 111 50 0 790 -53 916 -65 210 -21 277 -20 299 4 40 45 46 99 46 447 0
326 0 334 -21 344 -25 14 -322 30 -624 34 -126 2 -252 4 -280 5 l-50 1 28 18
c15 10 25 21 22 24 -3 3 -55 3 -115 0 l-110 -5 0 37 c0 48 -40 90 -100 106
-59 16 -104 5 -150 -36 -34 -31 -38 -40 -37 -77 2 -33 -1 -41 -13 -38 -8 1
-41 5 -72 8 -44 4 -58 3 -58 -7 0 -10 -38 -12 -187 -7 -104 4 -222 11 -263 17
-41 6 -234 19 -428 29 -195 11 -356 22 -358 24 -4 4 13 82 46 207 22 85 31
227 20 314 -21 174 -94 285 -249 381 -227 141 -211 125 -266 266 -14 37 -42
93 -61 125 -31 51 -35 64 -27 94 7 31 14 36 67 54 44 15 73 33 111 71 51 52
51 53 69 156 27 156 38 278 32 339 -3 30 -8 78 -10 107 -2 28 -11 62 -19 75
-8 12 -15 40 -16 61 -1 21 -11 81 -21 134 -33 157 -104 263 -213 316 -170 83
-316 112 -427 87z m-2870 -3305 c228 -14 494 -29 590 -35 96 -6 272 -17 390
-25 118 -8 289 -19 379 -24 89 -6 165 -12 168 -15 5 -5 -77 -166 -102 -199
-12 -17 -21 -18 -121 -8 -122 12 -112 6 -216 148 -43 60 -56 72 -73 67 -32
-10 -135 -116 -135 -140 0 -46 -24 -53 -178 -50 -149 3 -189 14 -139 37 26 12
45 45 33 57 -4 3 -41 -9 -84 -27 -42 -18 -91 -35 -107 -38 -28 -4 -32 -1 -52
41 -13 25 -26 46 -30 46 -5 0 -21 -16 -37 -36 l-28 -36 -29 28 c-31 30 -40 27
-63 -18 -8 -14 -20 -22 -32 -20 -10 1 -66 7 -124 12 -428 40 -545 52 -549 56
-2 2 4 51 14 109 l18 105 46 -5 c25 -3 233 -17 461 -30z m3980 -250 c239 -19
581 -42 760 -50 219 -11 329 -21 337 -29 7 -6 13 -23 14 -36 1 -32 -21 -164
-29 -177 -5 -8 -70 -8 -207 -2 -247 10 -934 54 -1150 74 -88 7 -206 17 -262
20 -57 4 -103 11 -103 15 0 7 85 159 116 208 12 18 21 21 52 17 20 -3 233 -21
472 -40z m-4310 -605 c118 -11 244 -23 279 -26 l65 -6 -135 -45 c-73 -25 -174
-56 -224 -69 -49 -14 -136 -49 -194 -79 -57 -30 -116 -55 -131 -55 l-27 0 24
138 c13 75 26 143 28 150 6 17 64 16 315 -8z m4120 -375 c1054 -98 1103 -104
1129 -130 l25 -24 -28 -167 c-15 -92 -31 -177 -36 -189 l-8 -21 -317 38 c-174
20 -444 49 -599 63 -154 14 -348 33 -431 43 l-149 17 -19 50 c-21 59 -62 221
-72 285 -3 25 -9 54 -12 64 -6 22 -62 25 517 -29z m-5147 -295 l47 0 0 -41 c0
-38 -2 -41 -22 -35 -13 4 -54 15 -91 25 -37 10 -68 22 -69 27 -1 14 45 35 67
29 11 -2 41 -5 68 -5z m323 -30 c54 -5 109 -10 122 -10 12 0 22 -5 22 -11 0
-14 -118 -257 -128 -263 -12 -7 -111 119 -137 176 -24 51 -32 107 -18 121 4 4
14 5 23 2 9 -3 61 -10 116 -15z m-786 -23 c0 -8 -31 -55 -70 -106 -92 -121
-153 -236 -216 -402 -28 -75 -54 -143 -58 -150 -3 -8 -4 114 -3 271 4 368 4
369 142 389 101 14 205 13 205 -2z m468 -158 c50 -24 89 -54 153 -119 48 -47
89 -95 93 -106 4 -15 -49 -129 -185 -395 -105 -205 -195 -379 -200 -385 -5 -6
-26 -8 -51 -5 -24 4 -68 3 -98 -1 -30 -4 -88 -10 -127 -14 -41 -4 -78 -13 -84
-20 -6 -8 -24 -14 -39 -14 -15 0 -73 -12 -129 -26 -57 -14 -104 -24 -106 -22
-7 7 45 259 70 343 36 121 89 229 123 253 51 35 60 35 82 -8 11 -21 25 -42 30
-45 16 -10 47 21 66 65 l16 36 48 -10 c92 -19 178 40 230 156 44 100 31 212
-31 283 -45 51 -89 49 -140 -5 -22 -22 -42 -52 -45 -66 -9 -37 14 -115 44
-147 25 -26 26 -29 11 -55 -9 -17 -25 -28 -42 -30 -40 -5 -62 50 -53 134 9 83
22 121 62 171 64 79 177 91 302 32z m1779 -425 c17 -236 32 -482 32 -546 l1
-118 -83 0 c-58 0 -100 6 -142 21 -53 18 -77 21 -202 17 l-143 -3 0 24 0 24
-177 -6 c-98 -3 -189 -9 -201 -13 l-24 -7 17 34 c10 19 28 45 40 59 13 14 42
56 65 94 35 58 44 85 55 158 13 82 17 92 59 140 29 33 47 65 51 89 4 20 24 61
46 90 21 29 39 62 39 73 0 12 13 29 29 40 34 23 61 65 61 95 0 12 11 26 28 35
15 8 49 37 77 65 l49 51 101 1 c55 1 114 5 130 8 63 15 57 42 92 -425z m1878
206 c132 -17 475 -62 763 -100 287 -39 527 -70 532 -70 25 0 38 -30 29 -72 -4
-24 -13 -245 -19 -493 -6 -247 -14 -475 -17 -506 l-6 -56 -39 9 c-50 11 -174
-4 -252 -32 -66 -22 -117 -26 -148 -9 -19 10 -17 13 26 55 25 24 46 48 46 53
0 13 -178 25 -257 16 -38 -4 -80 -13 -94 -21 -23 -12 -29 -11 -39 1 -7 8 -29
15 -50 15 -23 0 -48 8 -64 21 -16 13 -47 23 -74 26 -130 11 -218 26 -260 42
-37 14 -69 17 -147 15 -129 -4 -201 -11 -214 -19 -24 -14 -32 8 -11 30 21 22
21 24 3 33 -10 6 -52 15 -94 21 -72 11 -125 7 -185 -16 -16 -6 -17 -4 -7 8 11
13 1 17 -75 27 -48 7 -114 12 -147 11 -93 -2 -147 0 -152 4 -8 8 -23 232 -23
343 0 61 4 134 10 162 8 42 6 61 -11 109 -17 48 -19 72 -14 136 5 64 3 86 -14
133 -20 52 -20 59 -6 107 8 29 12 65 9 83 -3 18 -4 37 0 42 5 9 572 -52 1001
-108z m-4149 -97 c-1 -1 -21 -5 -44 -9 l-42 -7 14 39 c7 22 22 56 32 77 l18
39 12 -69 c6 -37 11 -69 10 -70z m6366 -223 c-2 -24 -5 -46 -7 -48 -7 -8 -94
20 -105 33 -12 15 11 38 55 53 51 18 60 12 57 -38z m339 4 l56 -6 7 -66 c3
-37 8 -134 11 -217 3 -82 7 -184 10 -225 l4 -75 -33 70 c-18 39 -56 111 -85
160 -87 150 -111 213 -111 293 0 38 3 72 7 76 4 4 23 5 43 2 19 -3 60 -8 91
-12z m-767 -56 c-4 -7 -29 -44 -54 -83 -72 -108 -135 -230 -175 -339 -19 -55
-38 -102 -41 -105 -8 -8 5 277 17 388 4 47 15 91 22 98 17 17 147 50 200 52
28 1 36 -2 31 -11z m367 -149 c61 -19 103 -62 162 -166 78 -140 100 -185 156
-326 47 -118 121 -352 121 -383 0 -10 -15 -14 -60 -14 -84 0 -206 -27 -256
-56 -40 -24 -84 -32 -84 -16 0 5 18 23 40 41 61 49 55 67 -27 74 -140 14 -246
9 -283 -13 -88 -51 -121 -61 -156 -48 l-33 12 30 52 c29 51 29 53 10 63 -11 6
-38 11 -60 11 -23 0 -41 3 -41 7 0 14 42 93 50 93 4 0 11 -11 14 -24 14 -56
71 -75 98 -33 8 12 20 38 27 58 11 36 13 37 51 32 78 -11 172 62 220 170 12
26 26 84 32 130 10 73 9 90 -7 142 -24 73 -71 137 -113 151 -31 10 -32 11 -15
26 31 28 70 33 124 17z m-220 -380 c-9 -23 -10 -22 -10 11 -1 23 2 31 9 24 7
-7 7 -19 1 -35z"/>
</g>
</svg>
