<?xml version="1.0" standalone="no"?>
<!DOCTYPE svg PUBLIC "-//W3C//DTD SVG 20010904//EN"
 "http://www.w3.org/TR/2001/REC-SVG-20010904/DTD/svg10.dtd">
<svg version="1.0" xmlns="http://www.w3.org/2000/svg"
 width="1280.000000pt" height="640.000000pt" viewBox="0 0 1280.000000 640.000000"
 preserveAspectRatio="xMidYMid meet">
<g transform="translate(0.000000,640.000000) scale(0.100000,-0.100000)"
fill="#0e2267" stroke="none">
<path d="M8125 4111 c-46 -12 -97 -41 -125 -72 l-26 -27 -55 14 c-134 36 -269
-32 -301 -152 -12 -44 -12 -44 -58 -44 -147 0 -270 -97 -270 -212 l0 -48 -42
0 c-129 0 -284 -47 -345 -105 -42 -41 -42 -41 -111 -37 -137 8 -279 -45 -335
-124 -28 -40 -35 -44 -74 -44 -33 0 -45 5 -53 21 -45 83 -442 135 -725 94
-182 -26 -275 -64 -275 -114 0 -25 -4 -27 -66 -39 -86 -16 -155 -46 -190 -83
-15 -16 -34 -29 -41 -29 -8 0 -25 -11 -39 -25 -24 -24 -34 -26 -122 -28 -78
-2 -105 -7 -139 -25 -46 -24 -73 -56 -73 -85 0 -13 -5 -17 -16 -13 -9 3 -22 6
-30 6 -11 0 -13 6 -9 20 18 57 -43 154 -125 195 -40 20 -48 29 -53 60 -16 101
-147 185 -367 237 -59 13 -139 21 -262 25 -173 6 -178 6 -178 27 0 111 -125
228 -300 281 -184 55 -431 58 -604 7 -24 -7 -42 -2 -95 25 -86 43 -155 57
-276 56 -157 -1 -290 -56 -385 -159 -44 -48 -90 -135 -90 -171 0 -22 -4 -23
-79 -23 -164 0 -277 -43 -371 -140 -51 -53 -62 -60 -96 -60 -104 -1 -234 -52
-311 -123 -60 -55 -83 -103 -83 -172 0 -54 -2 -58 -49 -104 -37 -36 -51 -59
-62 -99 -13 -52 -14 -53 -43 -46 -17 4 -67 7 -111 6 -181 -2 -325 -92 -325
-205 l0 -34 -73 -6 c-97 -8 -200 -41 -240 -77 -28 -25 -30 -31 -22 -56 12 -34
56 -61 144 -88 66 -21 71 -21 2291 -24 2471 -3 2276 -8 2339 63 26 31 51 88
51 122 0 16 74 73 95 73 9 0 32 -12 50 -26 52 -39 144 -64 239 -64 79 0 188
21 211 40 7 6 31 2 66 -12 45 -19 76 -23 195 -24 98 -2 151 -7 176 -17 105
-44 270 -40 372 8 45 21 55 23 100 13 116 -25 275 5 334 62 20 19 27 20 54 11
45 -16 97 -13 143 8 42 19 105 82 105 105 0 8 17 16 44 19 24 4 72 16 106 28
60 20 62 21 131 4 85 -21 228 -16 303 10 45 16 51 16 85 1 68 -31 146 -46 243
-46 117 0 183 13 265 51 47 23 67 27 81 20 34 -18 150 -28 220 -19 39 6 93 22
129 40 34 16 66 27 71 24 49 -30 381 -48 492 -26 25 4 46 7 48 5 2 -2 -2 -22
-9 -44 -11 -36 -10 -50 5 -97 29 -91 114 -170 239 -221 124 -51 162 -57 332
-57 151 1 165 3 248 31 l89 30 73 -37 c100 -50 175 -65 330 -65 137 0 222 19
304 66 27 16 40 18 60 10 135 -52 386 -36 500 30 34 20 34 20 85 0 157 -62
351 -49 475 32 35 23 37 23 81 6 25 -9 81 -23 126 -29 179 -28 372 47 425 164
10 23 19 50 19 61 0 17 10 22 58 31 149 29 212 134 135 225 -32 37 -82 63
-155 79 -50 11 -58 16 -63 41 -13 60 -110 131 -242 175 -118 40 -219 55 -393
61 -157 4 -168 6 -220 33 -73 38 -203 75 -317 90 -90 12 -347 9 -405 -6 -24
-5 -29 -2 -38 20 -18 48 -97 122 -163 152 -55 26 -73 29 -162 29 -87 0 -107
-3 -155 -26 -71 -33 -121 -77 -150 -131 l-22 -43 -59 28 c-199 95 -456 69
-588 -60 -53 -52 -58 -54 -86 -45 -42 15 -142 32 -184 32 -24 0 -40 6 -47 18
-6 9 -35 31 -65 47 -48 27 -63 30 -140 30 l-87 0 -4 53 c-8 88 -75 153 -185
175 -58 12 -60 13 -47 32 8 10 14 37 14 59 0 59 -33 101 -110 139 -60 30 -72
32 -162 32 l-98 0 0 31 c0 45 -54 112 -112 141 -50 25 -145 37 -193 24z"/>
</g>
</svg>
