<?xml version="1.0" encoding="UTF-8" standalone="no"?>
<!-- Created with Inkscape (http://www.inkscape.org/) -->

<svg
   xmlns:dc="http://purl.org/dc/elements/1.1/"
   xmlns:cc="http://creativecommons.org/ns#"
   xmlns:rdf="http://www.w3.org/1999/02/22-rdf-syntax-ns#"
   xmlns:svg="http://www.w3.org/2000/svg"
   xmlns="http://www.w3.org/2000/svg"
   xmlns:sodipodi="http://sodipodi.sourceforge.net/DTD/sodipodi-0.dtd"
   xmlns:inkscape="http://www.inkscape.org/namespaces/inkscape"
   width="20"
   height="20"
   viewBox="0 0 5.2916665 5.2916668"
   version="1.1"
   id="svg8"
   sodipodi:docname="Start.svg"
   inkscape:version="0.92.3 (2405546, 2018-03-11)">
  <defs
     id="defs2" />
  <sodipodi:namedview
     id="base"
     pagecolor="#ffffff"
     bordercolor="#666666"
     borderopacity="1.0"
     inkscape:pageopacity="0.0"
     inkscape:pageshadow="2"
     inkscape:zoom="31.678384"
     inkscape:cx="13.561366"
     inkscape:cy="8.355256"
     inkscape:document-units="mm"
     inkscape:current-layer="layer2"
     showgrid="false"
     inkscape:window-width="1680"
     inkscape:window-height="987"
     inkscape:window-x="-8"
     inkscape:window-y="-8"
     inkscape:window-maximized="1"
     units="px" />
  <metadata
     id="metadata5">
    <rdf:RDF>
      <cc:Work
         rdf:about="">
        <dc:format>image/svg+xml</dc:format>
        <dc:type
           rdf:resource="http://purl.org/dc/dcmitype/StillImage" />
        <dc:title></dc:title>
      </cc:Work>
    </rdf:RDF>
  </metadata>
  <g
     inkscape:groupmode="layer"
     id="layer2"
     inkscape:label="Layer 2">
    <path
       style="fill:#00ffff;stroke-width:0.03156727"
       d="M 2.6012107,8.7681566 C 2.5230817,8.763478 2.4023369,8.7521782 2.3328889,8.7430461 L 2.2066198,8.7264417 V 6.8568246 c 0,-2.0736803 -0.018947,-2.3914333 -0.1554963,-2.6077414 -0.044692,-0.070797 -0.081258,-0.1364747 -0.081258,-0.1459512 0,-0.060216 -0.406301,-0.9622224 -0.533134,-1.1835806 L 1.2829892,2.6512296 1.4133482,2.6265773 c 0.071697,-0.013559 0.2368986,-0.016994 0.3671135,-0.00763 0.130215,0.00936 0.7126311,0.02508 1.294258,0.034932 0.972178,0.016468 1.0893413,0.012637 1.4520943,-0.047483 0.2273054,-0.037671 0.5393056,-0.06545 0.7359428,-0.065523 0.1877438,-6.94e-5 0.4860545,-0.021057 0.6629126,-0.046638 0.1768585,-0.025581 0.5174374,-0.068522 0.7568423,-0.095424 0.2394046,-0.026902 0.5158407,-0.069896 0.6143019,-0.095542 0.098461,-0.025646 0.2795913,-0.046629 0.4025107,-0.046629 0.1229195,0 0.3081549,-0.022105 0.411634,-0.049122 0.340722,-0.088959 0.8120194,-0.1391159 1.3127049,-0.139703 0.3351324,-3.93e-4 0.5324322,-0.014415 0.6155698,-0.043747 0.06729,-0.023743 0.22889,-0.060165 0.3591,-0.080939 0.130211,-0.020774 0.279363,-0.051702 0.331449,-0.06873 0.256938,-0.083996 0.867284,-0.1893097 1.262691,-0.2178735 0.883115,-0.063795 1.486363,-0.1313612 1.60993,-0.1803172 0.06945,-0.027515 0.31804,-0.090014 0.552427,-0.1388875 0.5087,-0.1060722 1.097835,-0.2579422 1.273916,-0.328396 0.06992,-0.0279777 0.260806,-0.12763795 0.424183,-0.22146724 0.302457,-0.17370378 1.087018,-0.45702966 1.26226,-0.45583534 0.144264,9.8319e-4 0.688672,0.48055842 0.884241,0.77893888 0.08883,0.1355266 0.182191,0.2961304 0.207471,0.3568974 0.02528,0.060767 0.102093,0.2028622 0.170697,0.3157672 0.222356,0.365943 0.314651,0.5787469 0.369616,0.8522217 0.02966,0.147577 0.08853,0.3557133 0.130814,0.4625253 0.09004,0.2274412 0.169729,0.6166172 0.169729,0.8289494 0,0.1398174 0.07633,0.7203937 0.115532,0.8787749 0.01092,0.044119 0.0032,0.071026 -0.0205,0.071026 -0.02094,0 -0.116859,0.085247 -0.213145,0.189438 -0.251883,0.2725615 -0.591334,0.4762449 -0.943562,0.5661728 -0.05438,0.013883 -0.1136,0.034346 -0.131603,0.045472 -0.04782,0.029556 -0.537688,0.1664602 -0.684978,0.1914328 -0.135062,0.0229 -0.495252,0.1534444 -0.848006,0.3073455 -0.119164,0.051989 -0.289627,0.1151984 -0.378807,0.1404652 -0.487153,0.1380213 -0.615277,0.1667358 -0.83573,0.187299 -0.133027,0.012409 -0.368535,0.063222 -0.523352,0.1129183 -0.154817,0.049697 -0.302202,0.090358 -0.327522,0.090358 -0.174409,0 -1.215155,0.2855748 -1.584918,0.4348924 -0.234387,0.09465 -0.589519,0.2116986 -0.789182,0.2601077 C 11.123841,7.5864398 10.535773,7.7411143 10.476072,7.7724104 10.335222,7.8462453 9.8147899,7.9121385 9.5137774,7.894249 9.349204,7.8844682 8.7173687,7.8677638 8.1096988,7.8571278 6.9213014,7.8363278 6.6916059,7.8513905 6.1105422,7.9882248 5.9311918,8.0304599 5.6968049,8.065306 5.5896823,8.0656602 5.3625315,8.0664115 4.5258398,8.1721284 4.3299508,8.2248281 4.2559246,8.2447435 4.1545928,8.2821006 4.1047691,8.3078443 3.9377096,8.3941625 3.6924663,8.4516016 3.406176,8.4714638 l -0.2841054,0.01971 -0.01001,0.1041806 c -0.00701,0.072917 -0.030688,0.1117844 -0.078918,0.1295198 -0.098431,0.036197 -0.2674384,0.053132 -0.4319319,0.043282 z M 5.8457575,6.8020895 C 6.0887314,6.7705339 6.2848945,6.6787066 6.4227687,6.53198 6.4894473,6.46102 6.5012752,6.4140476 6.5110102,6.1815351 6.5215815,5.9290632 6.5159552,5.900474 6.4167696,5.7026587 6.2110562,5.2923833 5.8562035,5.0218184 5.3381186,4.8802184 4.936606,4.7704795 4.6323153,4.5990216 4.3270419,4.3105103 4.0752262,4.0725215 4.0336696,3.9410855 4.1504809,3.7520806 c 0.052299,-0.084621 0.10193,-0.1162906 0.2446464,-0.156109 0.098471,-0.027474 0.2607744,-0.077265 0.360675,-0.110648 0.1308949,-0.04374 0.2698919,-0.060696 0.4975513,-0.060696 0.3031853,0 0.3222352,-0.00413 0.4728161,-0.1025936 C 5.8124661,3.2656076 5.8833273,3.2087865 5.8836392,3.195765 5.8844148,3.1633971 5.3581316,3.1671742 5.2212939,3.2005186 4.8571812,3.2892449 4.2955302,3.475099 4.1377154,3.5590821 3.9211847,3.6743115 3.7520485,3.8587448 3.723538,4.0107191 3.6963856,4.1554538 3.7603237,4.2828031 3.9659509,4.4935477 4.2614954,4.7964474 4.5597434,4.9650058 5.0870544,5.127153 5.5359766,5.265196 5.755299,5.418486 5.969482,5.7439041 6.0949678,5.934561 6.1386036,6.0328166 6.1545814,6.1606966 c 0.026317,0.2106382 -0.00354,0.3755261 -0.073938,0.4083548 -0.029911,0.013948 -0.3953106,0.029311 -0.8119985,0.034141 l -0.7576145,0.00878 -0.1493181,0.087284 c -0.082125,0.048007 -0.1495999,0.097938 -0.1499445,0.1109599 -9.022e-4,0.0341 1.3610012,0.027325 1.6339898,-0.00813 z M 9.8370047,6.3768212 c 0.1057415,-0.03781 0.1627037,-0.080842 0.1963873,-0.1483614 0.04049,-0.081156 0.04078,-0.092548 0.002,-0.077671 -0.02499,0.00959 -0.053953,0.00365 -0.064368,-0.013206 C 9.950385,6.1041898 9.7221997,5.9815761 9.6806938,5.9815761 c -0.014109,0 -0.103296,0.051134 -0.1981935,0.1136314 C 9.2730059,6.2331854 9.1968824,6.2294876 8.8450974,6.0642421 8.7113447,6.0014138 8.58918,5.950009 8.5736202,5.950009 8.5175836,5.950009 8.2905344,5.764253 8.1765586,5.6251604 8.0648891,5.4888826 8.0595498,5.4712463 8.0441607,5.1878306 8.0353408,5.0254019 8.0068372,4.7948295 7.9808191,4.6754478 7.9548011,4.5560661 7.9376424,4.4548292 7.9426881,4.4504774 7.9477341,4.4461252 8.0370941,4.3954616 8.1412661,4.3378918 8.3500065,4.222533 8.5442806,4.0854417 8.5255546,4.0667157 8.5189432,4.0601042 8.4084656,4.104055 8.280049,4.1643842 8.1516324,4.2247133 8.0048857,4.2782707 7.9539453,4.2834003 7.8703166,4.2918222 7.8589322,4.2815189 7.8366672,4.1772674 7.8140745,4.0714808 7.285516,3.026288 7.2064097,2.9309706 7.1787741,2.897672 7.1473612,2.9024074 7.041214,2.9558734 6.8242557,3.0651543 6.8223872,3.0688849 6.9113558,3.2151276 c 0.1148303,0.1887521 0.551214,1.0533746 0.551214,1.0921392 0,0.020057 -0.1014004,0.032812 -0.2608514,0.032812 -0.2495926,0 -0.2683268,0.00511 -0.4340499,0.1183773 L 6.59447,4.5768329 6.8333111,4.585948 C 6.9646738,4.590958 7.1754718,4.582728 7.301751,4.567641 7.5225258,4.541273 7.5323824,4.542936 7.5582272,4.610913 7.6207792,4.7754371 7.6835407,5.1760895 7.6835407,5.4108796 v 0.252714 l 0.1946971,0.2081315 c 0.1643389,0.1756788 0.2467844,0.2329472 0.5287517,0.3672801 0.18373,0.087532 0.405081,0.1710415 0.491891,0.1855773 0.2407004,0.040305 0.7667304,0.013523 0.9381242,-0.047761 z M 10.887618,5.7938054 c 0.200663,-0.1175688 0.572114,-0.4509103 0.761339,-0.6832274 0.130584,-0.160321 0.138019,-0.1774883 0.06942,-0.1602708 -0.193635,0.048599 -0.312014,0.1270096 -0.479136,0.3173637 -0.09913,0.112912 -0.236849,0.2501311 -0.30604,0.3049313 L 10.8074,5.6722386 10.673889,5.6188362 C 10.600458,5.5894648 10.455147,5.5048336 10.350975,5.4307663 10.246803,5.3566994 10.113452,5.2713914 10.05464,5.2411932 9.9210191,5.172583 9.8374138,5.0827498 9.6278757,4.7826382 9.331912,4.3587435 9.2833278,4.2583486 9.3058864,4.1172754 9.3310297,3.9600373 9.5366949,3.4037873 9.6086689,3.2983586 9.6383005,3.2549536 9.7097186,3.1299275 9.7673759,3.0205229 9.9559268,2.6627483 10.047288,2.6250706 10.511094,2.7138114 c 0.233527,0.044681 0.249197,0.043952 0.346384,-0.016113 l 0.101791,-0.062911 0.02251,0.1502735 c 0.01238,0.08265 0.08428,0.2852235 0.159768,0.4501625 0.07549,0.1649389 0.173725,0.4348391 0.218296,0.599778 0.129621,0.4796786 0.174919,0.6010771 0.299824,0.8035385 0.06475,0.1049568 0.156589,0.2591957 0.204083,0.3427533 0.150583,0.2649251 0.346318,0.3329955 0.595598,0.2071305 C 12.62042,5.1070967 13.185655,4.7177719 13.168119,4.700235 13.142519,4.674634 12.763327,4.8430582 12.62838,4.9399698 12.422894,5.0875389 12.37757,5.0537291 12.055841,4.5128827 11.898461,4.2483171 11.839223,4.1121962 11.789644,3.9012022 11.704388,3.5383712 11.59764,3.231431 11.470203,2.9826859 11.377287,2.8013216 11.36351,2.7417643 11.351541,2.4697178 11.344094,2.3004384 11.324975,2.161937 11.309056,2.161937 c -0.01592,0 -0.0995,0.035753 -0.185732,0.07945 -0.137198,0.069523 -0.156788,0.091676 -0.156788,0.1773017 0,0.086234 -0.0084,0.095527 -0.07103,0.078268 -0.03906,-0.010771 -0.174082,-0.028723 -0.300039,-0.039894 -0.31273,-0.027735 -0.577312,0.04472 -0.782513,0.2142877 C 9.7290497,2.7406886 9.6345604,2.8112472 9.6029811,2.8281478 9.5714022,2.8450485 9.4943689,2.9613111 9.4317962,3.0865092 9.3692233,3.2117074 9.298768,3.3360485 9.2752283,3.3628228 9.2111575,3.4356981 9.0117237,3.9471865 8.9593845,4.1728694 8.903607,4.4133767 8.9179954,4.4565048 9.183668,4.8451547 c 0.2790733,0.4082531 0.3920339,0.534604 0.5496108,0.6147612 0.079303,0.04034 0.201008,0.1192551 0.2704562,0.1753669 0.324913,0.2625184 0.616982,0.3149005 0.883883,0.1585226 z m 3.124315,-0.1341922 c 0.155161,-0.075383 0.155615,-0.076454 0.111108,-0.2620313 -0.01666,-0.069448 -0.04594,-0.3312338 -0.06507,-0.5817462 -0.02406,-0.3150079 -0.05441,-0.5048471 -0.09841,-0.6155618 -0.035,-0.088046 -0.0953,-0.253022 -0.134016,-0.3666121 C 13.786833,3.7200717 13.70433,3.5404069 13.642205,3.434407 13.518422,3.2232026 13.314544,2.7350551 13.281857,2.5716195 l -0.02068,-0.1034138 0.346623,0.016429 c 0.190642,0.00904 0.375927,0.032113 0.411746,0.051283 0.07182,0.03844 0.2807,0.3152789 0.324197,0.4296859 0.0152,0.039979 0.08142,0.1844734 0.147164,0.3210992 0.110614,0.2298843 0.119608,0.2695988 0.12059,0.5325159 0.0012,0.3211272 -0.05546,0.4603767 -0.254641,0.6257516 -0.05903,0.04901 -0.107287,0.098728 -0.107246,0.1104855 3.2e-5,0.011757 0.07652,0.061317 0.169946,0.1101334 0.09343,0.048816 0.198969,0.1198423 0.234534,0.1578364 0.07895,0.084346 0.3995,0.6151466 0.462413,0.7657209 0.06726,0.1609738 0.12403,0.1655889 0.279062,0.022685 L 15.530455,5.4874921 15.315234,5.111637 C 15.078966,4.6990251 14.960488,4.5568284 14.772117,4.4597938 l -0.124543,-0.064156 0.08336,-0.060725 c 0.200611,-0.1461344 0.299568,-0.4909373 0.242534,-0.8450804 -0.05471,-0.339703 -0.452072,-1.0873525 -0.622927,-1.1720507 -0.111249,-0.055149 -0.976033,-0.08263 -1.026058,-0.032606 -0.04852,0.048522 -0.0851,0.043039 -0.0851,-0.012754 0,-0.06236 -0.02415,-0.060052 -0.219016,0.020929 l -0.164301,0.06828 0.02122,0.1605825 c 0.03426,0.2592126 0.172204,0.6397058 0.372947,1.0286823 0.103042,0.199663 0.213064,0.4411526 0.244493,0.5366436 0.03143,0.095491 0.08581,0.2517489 0.12084,0.3472399 0.04343,0.1183855 0.0641,0.2539612 0.06496,0.4261581 0.0019,0.3871618 0.09072,0.8680999 0.160232,0.8680999 0.01555,0 0.09258,-0.031241 0.171172,-0.069425 z m 3.811408,-0.4987489 c 0.154303,-0.058331 0.400632,-0.2200523 0.646678,-0.4245599 0.09828,-0.081687 0.109428,-0.154392 0.02844,-0.1854693 -0.0535,-0.020528 -0.360262,0.1748694 -0.344496,0.2194291 0.0069,0.019577 -0.05548,0.081374 -0.138693,0.1373261 L 17.863984,5.0093212 17.554551,4.9901059 C 17.071683,4.9601202 16.935551,4.8700095 16.790354,4.4842569 16.745119,4.3640793 16.682379,4.229206 16.650932,4.1845383 16.534074,4.0185548 16.465039,3.8448688 16.442862,3.6610523 16.430315,3.5570618 16.401207,3.4258726 16.378178,3.3695209 l -0.04187,-0.1024578 0.174627,-0.082612 c 0.226474,-0.1071392 0.664027,-0.3998726 0.619754,-0.4146302 -0.04638,-0.015459 -0.238411,0.067237 -0.430266,0.1852859 -0.108807,0.06695 -0.202498,0.098708 -0.300569,0.1018836 L 16.25737,3.0616004 16.2201,2.7301441 C 16.1996,2.5478431 16.17247,2.2530838 16.1598,2.0751233 16.14713,1.8971628 16.12362,1.7515588 16.10755,1.7515588 c -0.01607,0 -0.101585,0.036674 -0.190042,0.081499 l -0.16083,0.081499 0.02158,0.1789313 c 0.01187,0.098412 0.03512,0.342164 0.05168,0.5416707 0.01656,0.1995066 0.03804,0.3877264 0.04773,0.4182663 0.02196,0.069191 0.02802,0.069455 -0.284062,-0.012397 l -0.258977,-0.067924 -0.14794,0.086698 c -0.08137,0.047684 -0.154587,0.097455 -0.162713,0.1106027 -0.02287,0.037011 0.479115,0.1657632 0.715335,0.183472 l 0.211298,0.01584 0.05051,0.1262385 c 0.02778,0.069431 0.06284,0.2244543 0.07792,0.3444961 0.02111,0.1681336 0.05677,0.2676803 0.155257,0.4334631 0.07032,0.1183631 0.158813,0.2988634 0.196654,0.4011123 0.08716,0.2354969 0.158917,0.3375539 0.297632,0.4232846 0.165484,0.1022751 0.252601,0.1199625 0.605478,0.1229327 0.2505,0.00211 0.359596,-0.011355 0.489292,-0.060384 z"
       id="path274"
       inkscape:connector-curvature="0"
       transform="scale(0.26458333)" />
  </g>
  <g
     inkscape:label="Layer 1"
     inkscape:groupmode="layer"
     id="layer1"
     transform="translate(0,-291.70832)">
    <path
       transform="translate(0,9.1666667e-6)"
       id="path43"
       d="m 0.29186341,292.3386 c 0.0200872,0.0384 0.0426525,0.0747 0.066282,0.11115 0.0234976,0.0415 0.047517,0.0825 0.0685846,0.12507 0.0179899,0.0334 0.026197,0.0702 0.0416675,0.10442 0.0132137,0.0286 0.0271178,0.057 0.039108,0.0861 0.003578,0.0256 0.0167365,0.0455 0.0296601,0.0676 0.0196939,0.0218 0.0255525,0.0488 0.0299468,0.0761 0.004816,0.0315 0.002225,0.0633 0.005952,0.0948 0.006536,0.0365 0.0105728,0.0734 0.0127688,0.11022 0.001755,0.0351 0.001938,0.0703 0.002041,0.10558 2.98e-6,0.0391 -5.734e-5,0.0782 -8.406e-5,0.11737 -2.339e-5,0.0378 -3.497e-5,0.0753 -4.862e-5,0.11312 1.15e-6,0.0362 8.95e-6,0.0723 1.159e-5,0.10848 3.44e-6,0.0313 3.89e-6,0.0625 4.24e-6,0.0938 2.3e-7,0.0308 2.3e-7,0.0615 0,0.0922 -5.8e-7,0.034 -9.98e-6,0.0678 -8.14e-6,0.10177 -4.851e-5,0.0318 0.001812,0.0634 -0.004323,0.0948 -0.006777,0.027 -0.009575,0.0546 -0.0111921,0.0822 -7.6017e-4,0.0198 -4.455e-4,0.0104 -9.1486e-4,0.0299 0,0 -0.089329,0.0417 -0.089329,0.0417 v 0 c 3.9322e-4,-0.0202 1.3704e-4,-0.0104 7.8425e-4,-0.0301 0.00141,-0.0279 0.003658,-0.056 0.0105614,-0.0833 0.006915,-0.0308 0.005481,-0.0618 0.005195,-0.0932 2.06e-6,-0.034 -7.22e-6,-0.0678 -8.03e-6,-0.10176 0,-0.0308 0,-0.0615 0,-0.0923 2.3e-7,-0.0312 4.6e-7,-0.0625 3.1e-6,-0.0938 3.67e-6,-0.0362 1.021e-5,-0.0723 1.181e-5,-0.10849 1.26e-6,-0.0378 -1.181e-5,-0.0753 2.328e-5,-0.11312 3.509e-5,-0.0391 9.277e-5,-0.0782 7.087e-5,-0.11732 -7.087e-5,-0.0351 -1.7259e-4,-0.0701 -0.001789,-0.10513 -0.002018,-0.0367 -0.005734,-0.0734 -0.0124798,-0.10964 -0.004507,-0.0314 -0.00141,-0.0632 -0.005848,-0.0947 -0.003899,-0.0265 -0.009082,-0.0522 -0.0282645,-0.0733 -0.0130773,-0.0222 -0.0270983,-0.0426 -0.0303115,-0.0687 -0.0117517,-0.029 -0.0258117,-0.0573 -0.0388855,-0.0858 -0.0157434,-0.034 -0.0235366,-0.0709 -0.0415024,-0.10419 -0.0208395,-0.0422 -0.0447373,-0.083 -0.0680239,-0.12417 -0.0238279,-0.0366 -0.0463737,-0.0734 -0.0667315,-0.11173 0,0 0.0870527,-0.0457 0.0870527,-0.0457 z"
       inkscape:connector-curvature="0"
       style="stroke-width:0.01123449" />
    <path
       transform="translate(0,9.1666667e-6)"
       id="path49"
       d="m 0.33027684,292.35407 c 0.0467636,-4.2e-4 0.0931636,-0.008 0.1397141,-0.0116 0.0362263,-10e-4 0.0731131,-0.007 0.10916045,-10e-4 0.0287198,0.006 0.0579122,0.009 0.0873359,0.0116 0.0326038,10e-4 0.065266,10e-4 0.0979065,10e-4 0.033442,1e-5 0.066884,-3e-5 0.10032492,-7e-5 0.0375404,-5e-5 0.0750808,-2e-5 0.11262247,-2e-5 0.042437,-10e-6 0.084873,0 0.12730932,-10e-6 0.035547,2e-4 0.070542,10e-4 0.1054199,-0.006 0.028542,-0.006 0.056917,-0.008 0.084885,-0.0147 0.034591,-0.009 0.070749,-0.009 0.1063601,-0.0104 0.03967,-7.6e-4 0.079359,-7.6e-4 0.1190394,-7.6e-4 0.033666,7.6e-4 0.066458,-0.008 0.099749,-0.0116 0.034847,-0.005 0.069168,-0.0118 0.1043545,-0.0153 0.039786,-6.2e-4 0.078608,-0.006 0.1178281,-0.0116 0.034538,-0.005 0.06895,-0.006 0.1028707,-0.0126 0.02763,-0.003 0.052743,-0.0144 0.079835,-0.0199 0.030729,-0.006 0.062072,-0.006 0.093217,-0.006 0.031478,0.002 0.061333,-0.002 0.09195,-0.008 0.025301,-0.0119 0.052284,-0.0174 0.080309,-0.0202 0.032786,-0.002 0.064519,-0.0104 0.09722,-0.0147 0.032603,-0.003 0.065422,-0.003 0.098169,-0.003 0.033399,-1.2e-4 0.066797,-3e-5 0.1001954,2e-5 0.033433,3e-5 0.066867,3e-5 0.1002997,3e-5 0.026933,-0.006 0.047869,-0.0195 0.075779,-0.0247 0.03533,-0.006 0.070028,-0.0138 0.1057386,-0.0179 0.033015,-3e-5 0.060848,-0.0167 0.091558,-0.0255 0.030777,-0.005 0.06084,-0.0116 0.091432,-0.0167 0.00561,-7.7e-4 0.011479,-7.7e-4 0.01693,-0.002 0.00508,-10e-4 0.00935,-0.005 0.014378,-0.007 0.024904,-0.008 0.053136,-0.009 0.079206,-0.0119 0.038958,-0.003 0.078448,2.1e-4 0.1172079,-0.005 0.031185,-0.006 0.062739,-0.009 0.09453,-0.0116 0.033138,-4e-4 0.065569,-7.6e-4 0.098195,-0.007 0.033184,-0.006 0.066891,-0.008 0.1006093,-0.009 0.026348,-0.008 0.05429,0.002 0.078826,-0.0104 0.021797,-0.009 0.043264,-0.0198 0.065953,-0.0274 0.032123,-0.005 0.063408,-0.0104 0.095076,-0.0172 0.029647,-0.002 0.05788,-0.009 0.086721,-0.0154 0.01836,-4.1e-4 0.032823,-0.0104 0.048676,-0.017 0.00812,-0.003 0.017007,-0.005 0.025188,-0.008 0.029839,-0.007 0.059509,-0.0141 0.089421,-0.021 0.028979,-0.002 0.05402,-0.0116 0.079289,-0.0238 -0.023096,0.0149 0.062255,-0.0272 0.035791,-0.0133 -0.025311,0.0132 -0.050507,0.0266 -0.076209,0.0392 -0.00353,10e-4 0.00608,-0.005 0.00948,-0.007 0.032392,-0.0176 0.065245,-0.0347 0.097869,-0.0519 -0.024527,0.013 -0.098197,0.0516 -0.073573,0.0388 0.032931,-0.0172 0.065891,-0.0342 0.098497,-0.0518 0.024511,-0.0132 -0.049307,0.0261 -0.074204,0.0386 -0.004,0.002 0.00768,-0.005 0.011398,-0.007 0.00531,-0.003 0.015293,-0.0104 0.020406,-0.0143 0.042257,-0.0253 0.00623,-0.003 0.108993,-0.0564 0.00369,-0.001 0.014616,-0.008 0.010974,-0.006 -0.02475,0.013 -0.098896,0.052 -0.074303,0.0388 0.1004453,-0.054 0.064269,-0.0417 0.1181035,-0.0581 0.034415,-0.008 0.064731,-0.0238 0.09853,-0.0335 0.029986,-0.007 0.05871,-0.0169 0.086748,-0.0284 0.022436,-0.008 0.04657,-0.0104 0.070512,-0.0126 0,0 -0.080475,0.0551 -0.080475,0.0551 v 0 c -0.023496,0.002 -0.046924,0.006 -0.068551,0.0149 -0.028179,0.0116 -0.057672,0.0201 -0.087328,0.0277 -0.033107,0.0104 -0.064247,0.0257 -0.098346,0.0337 -0.00585,0.002 -0.022681,0.009 -0.017422,0.006 0.02322,-0.0139 0.095479,-0.0517 0.07155,-0.0388 -0.03247,0.0174 -0.064608,0.0353 -0.097152,0.0526 -0.00369,10e-4 -0.015077,0.007 -0.011467,0.006 0.024426,-0.0138 0.049415,-0.0268 0.073942,-0.0405 0.00361,-0.002 -0.00745,0.003 -0.011226,0.006 -0.044478,0.0299 -0.071996,0.0424 -0.1287508,0.0745 -0.00813,0.005 0.2497091,-0.13452 -0.024972,0.0129 0.1747088,-0.0956 -0.006,0.0116 -0.066945,0.0327 -0.025518,0.012 -0.052529,0.0177 -0.080669,0.022 -0.029609,0.008 -0.059694,0.013 -0.08876,0.0219 -0.024804,0.008 -0.048223,0.0201 -0.074611,0.0235 -0.028732,0.007 -0.057595,0.0104 -0.086814,0.0153 -0.031339,0.007 -0.063108,0.0104 -0.094167,0.0183 -0.022158,0.009 -0.04394,0.0182 -0.065853,0.0275 -0.026333,0.007 -0.054105,10e-4 -0.080888,0.008 -0.033507,10e-4 -0.066914,0.005 -0.099893,0.0104 -0.032792,0.005 -0.065683,0.005 -0.098777,0.006 -0.031685,0.002 -0.06297,0.007 -0.094258,0.0118 -0.038982,0.003 -0.078294,6.2e-4 -0.1172578,0.005 -0.037729,0.003 -0.073496,0.0126 -0.1099563,0.0216 -0.03027,0.006 -0.060694,0.0104 -0.090724,0.0176 -0.030509,0.009 -0.059434,0.024 -0.092668,0.0241 -0.035406,0.005 -0.07002,0.0125 -0.1051297,0.0187 -0.026305,0.007 -0.049415,0.0218 -0.077181,0.023 -0.033435,0 -0.066871,-2e-5 -0.1003065,-8e-5 -0.033377,-3e-5 -0.066753,-1.6e-4 -0.10013,8e-5 -0.032519,4.3e-4 -0.065125,7.7e-4 -0.097432,0.005 -0.032541,0.005 -0.064398,0.0124 -0.097271,0.0146 -0.027784,0.003 -0.053638,0.0118 -0.079894,0.0208 -0.03085,0.006 -0.061496,0.008 -0.092994,0.007 -0.030763,6.3e-4 -0.061784,10e-4 -0.091914,0.008 -0.02669,0.007 -0.052428,0.0161 -0.079935,0.0198 -0.03408,0.007 -0.06892,0.007 -0.1032605,0.012 -0.039243,0.006 -0.078387,0.009 -0.1180597,0.0116 -0.035039,0.003 -0.069292,0.0116 -0.1042845,0.0154 -0.033399,0.005 -0.06654,0.0121 -0.1004993,0.0104 -0.039605,0 -0.079219,-4e-5 -0.1188084,0.001 -0.035297,10e-4 -0.070961,0.002 -0.1050414,0.0119 -0.028098,0.007 -0.05703,0.008 -0.085343,0.0141 -0.035258,0.006 -0.070859,0.003 -0.1065081,0.003 -0.042434,0 -0.084867,0 -0.12730044,0 -0.0375496,10e-6 -0.0750992,2e-5 -0.1126488,5e-5 -0.0334489,3e-5 -0.0668978,8e-5 -0.10034671,4e-5 -0.0327861,-1.3e-4 -0.0656066,-1.7e-4 -0.0983366,-0.002 -0.0294984,-0.002 -0.0585875,-0.006 -0.0875951,-0.0119 -0.0358857,-0.003 -0.0720351,7.6e-4 -0.10786924,0.003 -0.0466993,0.003 -0.0933115,0.0116 -0.1403151,0.0104 0,0 0.0810392,-0.0543 0.0810392,-0.0543 z"
       inkscape:connector-curvature="0"
       style="stroke-width:0.01123449" />
    <path
       transform="translate(0,9.1666667e-6)"
       id="path51"
       d="m 0.56465676,294.02104 c 0.0463485,0.006 0.0930112,0.009 0.13973353,0.0116 0.0359511,0.005 0.0687108,-0.001 0.10208859,-0.0133 -0.007637,0.006 0.0380244,-0.0152 0.0290971,-0.0104 -0.16917549,0.0927 6.5536e-4,-0.0104 0.0544008,-0.0263 0.0309593,-0.003 0.0546358,-0.0227 0.0834371,-0.0321 0.0225412,-0.015 0.0503964,-0.0162 0.075543,-0.0246 -0.016126,0.0128 0.068431,-0.0278 0.048406,-0.0169 -0.11356962,0.0613 -0.095495,0.051 -0.065565,0.0335 0.040804,-0.0227 0.076706,-0.0494 0.1228455,-0.0575 0.014512,-0.002 0.028515,-0.003 0.042812,-0.007 0.028072,-0.008 0.057312,-0.0104 0.086529,-0.0125 0.029123,-0.001 0.057179,-0.009 0.08618,-0.0131 0.031942,-0.003 0.064102,-0.003 0.09619,-0.003 0.032411,10e-4 0.062998,-4.2e-4 0.093791,-0.0104 0.032879,-0.0104 0.066834,-0.0146 0.099814,-0.0241 0.02873,-0.009 0.059803,-0.008 0.089028,-0.014 0.032796,-0.008 0.066933,-0.0104 0.1007768,-0.0123 0.041974,-10e-4 0.08399,-10e-4 0.1259886,-10e-4 0.04086,2e-5 0.081719,9e-5 0.1225789,9e-5 0.047681,4e-5 0.095362,4e-5 0.1430426,2e-5 0.041603,10e-4 0.083553,-0.002 0.1249044,0.002 0.034171,0.006 0.068597,0.009 0.1032674,0.0117 0.03327,0.001 0.066592,0.001 0.099895,0.001 0.031543,0.002 0.0614,-0.002 0.092044,-0.008 0.032436,-0.005 0.065026,-0.0104 0.096183,-0.0193 0.030125,-0.0155 0.062217,-0.0253 0.096138,-0.0306 0.02661,-0.0104 0.056197,-0.0116 0.083417,-0.0197 0.027541,-0.006 0.054036,-0.0152 0.081595,-0.0213 0.0328,-0.0127 0.067121,-0.0219 0.1017835,-0.0292 0.037928,-0.008 0.077599,-0.0131 0.1145386,-0.0246 0.00469,-10e-4 0.00962,-0.002 0.014162,-0.005 0.00799,-0.003 0.015,-0.008 0.022882,-0.0119 0.011887,-0.006 0.024181,-0.008 0.035944,-0.0138 0.030055,-0.0104 0.06004,-0.0215 0.089625,-0.0333 -0.024619,0.0129 -0.049184,0.0259 -0.073864,0.0386 -0.00392,0.002 0.00774,-0.005 0.01168,-0.006 0.0326,-0.017 0.064907,-0.0346 0.097932,-0.051 0.011771,-0.006 0.026757,-0.007 0.039219,-0.0116 0.030578,-0.009 0.06224,-0.0159 0.093755,-0.0223 0.030832,-0.007 0.062278,-0.0137 0.092476,-0.0228 0.035745,-0.009 0.072181,-0.0169 0.108805,-0.0231 0.038982,-10e-4 0.072642,-0.0203 0.1091444,-0.0307 0.028133,-0.008 0.054927,-0.017 0.084085,-0.0212 0.030486,-0.003 0.060441,-0.003 0.090351,-0.009 0.028056,-0.003 0.054443,-0.0104 0.081595,-0.0171 0.025642,-0.005 0.049608,-0.015 0.073158,-0.0251 0.016461,-0.009 0.036745,-0.007 0.054174,-0.0116 9.995e-4,-2.1e-4 0.024519,-0.0118 0.02525,-0.0122 0.027394,-0.009 0.052121,-0.0229 0.078125,-0.0349 0.026771,-0.0104 0.055288,-0.0166 0.080852,-0.0291 0.02405,-0.009 0.045939,-0.0213 0.071197,-0.0277 0.019083,-0.006 0.040572,-0.002 0.059895,-0.006 0.00338,-6.1e-4 0.023689,-0.009 0.026664,-0.0104 0.027279,-0.0116 0.056581,-0.0155 0.084774,-0.0242 0.022212,-0.003 0.039627,-0.018 0.06104,-0.0234 0.019729,10e-4 0.034483,-0.009 0.052167,-0.0145 -0.1996577,0.10385 8.457e-4,-6.3e-4 0.016607,-0.008 0.00208,-7.6e-4 0.03566,-0.007 0.039981,-0.008 -0.00561,0.002 0.025657,-0.0116 0.019529,-0.008 -0.025342,0.0138 -0.051129,0.0268 -0.076817,0.04 -0.0033,10e-4 0.00638,-0.003 0.00964,-0.006 0.032115,-0.0169 0.064269,-0.0337 0.096544,-0.0504 0.025381,-0.0131 -0.050583,0.0265 -0.075879,0.0398 0.037214,-0.0323 0.074403,-0.046 0.1234234,-0.0723 0.028079,-0.0151 -0.2745004,0.145 0.021197,-0.0116 -0.1465008,0.0873 -0.060864,0.0279 -0.027133,0.008 0.012986,-0.0122 0.028594,-0.0209 0.039497,-0.0347 0.014977,-0.0172 0.031331,-0.0328 0.044609,-0.051 0.0033,-0.005 0.00623,-0.009 0.00939,-0.0147 0,0 0.091118,-0.0385 0.091118,-0.0385 v 0 c -0.00216,0.006 -0.00615,0.0104 -0.00866,0.0163 -0.013778,0.0181 -0.027126,0.0357 -0.044602,0.051 -0.00361,0.006 -0.00638,0.0104 -0.010539,0.0153 -0.00773,0.009 -0.022797,0.0104 -0.027649,0.0223 -0.045109,0.0319 -0.094384,0.0586 -0.144065,0.0846 0.024957,-0.0133 0.09999,-0.0534 0.074879,-0.0402 -0.032223,0.0169 -0.063577,0.0352 -0.096221,0.0515 -0.025441,0.0126 0.049638,-0.0272 0.074611,-0.0407 0.00523,-0.003 -0.030239,0.0183 -0.026503,0.0217 -0.3199141,0.17188 0.053759,-0.0286 -0.03027,0.0162 -0.031739,0.0169 -0.063323,0.0342 -0.09535,0.0505 -0.00484,0.002 -0.015331,0.006 -0.020614,0.007 -0.00974,0.002 -0.019537,0.003 -0.029193,0.007 -0.00323,7.6e-4 -0.012286,0.005 -0.00949,0.002 0.034153,-0.0198 0.1900631,-0.10107 -0.01703,0.008 -0.016969,0.007 -0.033877,0.0116 -0.052267,0.0144 -0.020259,0.008 -0.039266,0.0189 -0.061117,0.0232 -0.028095,0.008 -0.057527,0.0126 -0.084212,0.0249 -0.028317,0.0104 -0.057973,0.009 -0.087225,0.0162 -0.024296,0.008 -0.046593,0.0197 -0.070321,0.0287 -0.026618,0.0104 -0.054136,0.0187 -0.080663,0.0293 -0.025665,0.0124 -0.051445,0.0245 -0.078174,0.0348 -0.025711,0.0116 -0.053775,0.0124 -0.079592,0.0234 -0.023743,0.0104 -0.048616,0.0185 -0.074219,0.0239 -0.027056,0.007 -0.054197,0.0124 -0.081946,0.0167 -0.029978,0.006 -0.060402,0.005 -0.090547,0.009 -0.02854,0.006 -0.055243,0.0152 -0.083219,0.0223 -0.036229,0.0116 -0.070927,0.0274 -0.1099093,0.0297 -0.03639,0.007 -0.072704,0.0139 -0.1081628,0.0239 -0.030785,0.008 -0.061555,0.0165 -0.092923,0.0223 -0.031254,0.007 -0.062871,0.0129 -0.092981,0.0232 -0.00865,0.002 -0.017484,0.005 -0.026072,0.008 -0.00423,0.001 -0.016316,0.007 -0.012487,0.005 0.024219,-0.0139 0.049192,-0.0267 0.073803,-0.04 0.00392,-0.002 -0.0078,0.005 -0.011694,0.006 -0.032715,0.0174 -0.06543,0.0346 -0.09814,0.0519 -0.029517,0.0119 -0.059979,0.0216 -0.089476,0.0335 -0.024719,0.009 -0.048485,0.0211 -0.073849,0.029 -0.037851,0.009 -0.076502,0.0167 -0.1148752,0.0241 -0.034514,0.008 -0.06829,0.0181 -0.1016884,0.0293 -0.027248,0.007 -0.054151,0.0149 -0.081492,0.0216 -0.028033,0.006 -0.056427,0.0104 -0.083939,0.019 -0.033522,0.006 -0.064438,0.0183 -0.09546,0.0314 -0.031821,0.008 -0.064122,0.0143 -0.096782,0.0188 -0.030923,0.006 -0.061641,0.008 -0.093242,0.006 -0.033435,-1.3e-4 -0.066897,-2.1e-4 -0.1002802,-0.002 -0.034725,-0.002 -0.069117,-0.007 -0.1034796,-0.0121 -0.041291,-0.003 -0.082861,-6.2e-4 -0.124262,-10e-4 -0.047689,0 -0.095378,-3e-5 -0.1430665,-3e-5 -0.040852,-3e-5 -0.081703,-1.2e-4 -0.1225553,-9e-5 -0.041891,9e-5 -0.083809,5e-5 -0.1256608,10e-4 -0.033666,0.002 -0.067254,0.006 -0.099956,0.0133 -0.029561,0.005 -0.0599,0.006 -0.088442,0.0147 -0.033019,0.009 -0.067228,0.0136 -0.099825,0.0241 -0.031459,0.008 -0.062956,0.009 -0.095483,0.008 -0.03185,4.3e-4 -0.063798,7.6e-4 -0.09543,0.005 -0.028907,0.003 -0.057202,0.0121 -0.086584,0.0125 -0.028986,0.002 -0.057645,0.006 -0.085602,0.0137 -0.01416,0.002 -0.02863,0.003 -0.042631,0.007 -0.034636,0.008 -0.088824,0.0424 0.050041,-0.0322 -0.049808,0.0288 -0.098324,0.0597 -0.15542062,0.0736 -0.0258644,0.007 -0.0516372,0.0124 -0.0751485,0.025 -0.0278403,0.0104 -0.0530304,0.0272 -0.0835517,0.032 -0.040085,0.0153 -0.0248232,0.0104 0.0576219,-0.0335 0.004335,-0.002 -0.008337,0.006 -0.0126587,0.008 -0.0460985,0.0248 -0.0807675,0.049 -0.12851825,0.0625 -0.0340899,0.0104 -0.0684516,0.014 -0.10442677,0.0104 -0.046915,-0.002 -0.09376,-0.006 -0.14029555,-0.0122 0,0 0.081866,-0.0532 0.081866,-0.0532 z"
       inkscape:connector-curvature="0"
       style="stroke-width:0.01123449" />
    <path
       transform="translate(0,9.1666667e-6)"
       id="path59"
       d="m 4.6234194,291.73437 c 0.034861,0.0265 0.069367,0.0529 0.101959,0.0817 0.022459,0.0165 0.041742,0.0357 0.062831,0.0534 0.02262,0.0123 0.0312,0.0348 0.045586,0.0537 0.014239,0.0232 0.029525,0.0458 0.043303,0.0692 0.021159,0.021 0.028309,0.0472 0.037843,0.0734 0.00139,0.003 0.00222,0.008 0.00415,0.0116 0.00407,0.008 0.010745,0.0133 0.015438,0.0205 0.0085,0.0129 0.014432,0.0269 0.021944,0.0402 0.018153,0.0304 0.036536,0.0605 0.052652,0.0919 0.013224,0.0281 0.027464,0.0549 0.034737,0.085 0.0023,0.027 0.010355,0.0528 0.015861,0.0793 0.005,0.0245 0.011261,0.0493 0.020006,0.0728 0.00761,0.0231 0.02023,0.044 0.027802,0.0671 0.00538,0.0284 0.010252,0.0568 0.016223,0.0851 0.00639,0.0306 0.00806,0.0619 0.00913,0.093 -0.00139,0.0289 0.00162,0.0568 0.00772,0.085 0.007,0.0272 0.00569,0.0554 0.010539,0.0828 0.00745,0.0264 0.011444,0.0533 0.013716,0.0804 2.621e-4,0.005 5.504e-4,0.0104 8.457e-4,0.0148 0,0 -0.089017,0.0423 -0.089017,0.0423 v 0 c -2.207e-4,-0.005 -4.975e-4,-0.009 -7.335e-4,-0.0146 -0.002,-0.0269 -0.00554,-0.0536 -0.01324,-0.0796 -0.00561,-0.0272 -0.00361,-0.0555 -0.010435,-0.0826 -0.00623,-0.0286 -0.010424,-0.0569 -0.00849,-0.0863 -9.227e-4,-0.0306 -0.0023,-0.0614 -0.00838,-0.0917 -0.00585,-0.0282 -0.011364,-0.056 -0.015777,-0.0843 -0.00722,-0.0229 -0.020083,-0.0438 -0.027564,-0.0666 -0.00927,-0.0239 -0.015347,-0.0493 -0.020721,-0.0741 -0.00523,-0.0264 -0.013977,-0.0521 -0.015731,-0.079 -0.00669,-0.0294 -0.020759,-0.0556 -0.033607,-0.0831 -0.016008,-0.0313 -0.034391,-0.0613 -0.05249,-0.0916 -0.00738,-0.0131 -0.013078,-0.0268 -0.021398,-0.0393 -0.00515,-0.008 -0.012202,-0.0145 -0.016746,-0.0225 -0.002,-0.003 -0.00276,-0.008 -0.00415,-0.0116 -0.00969,-0.0256 -0.015808,-0.0515 -0.037013,-0.072 -0.013578,-0.0231 -0.028702,-0.0454 -0.042741,-0.0683 -0.013963,-0.0184 -0.022505,-0.0398 -0.04444,-0.0518 -0.021398,-0.0176 -0.040296,-0.0374 -0.062947,-0.0538 -0.032546,-0.0291 -0.067667,-0.0547 -0.1020874,-0.0818 0,0 0.085409,-0.0483 0.085409,-0.0483 z"
       inkscape:connector-curvature="0"
       style="stroke-width:0.01123449" />
    <path
       transform="translate(0,9.1666667e-6)"
       id="path61"
       d="m 1.4746428,292.60874 c -0.046665,-3e-5 -0.093329,-2e-5 -0.1399922,-1e-5 -0.034628,0.001 -0.064723,0.0124 -0.095536,0.0256 -0.029854,0.0119 -0.061976,0.0159 -0.092872,0.0247 -0.02442,0.009 -0.050898,0.0149 -0.074872,0.025 0.1451861,-0.0799 0.059734,-0.0347 0.034019,-0.002 -0.017233,0.0189 -0.02508,0.0405 -0.029446,0.0643 -0.00251,0.0236 0.0094,0.0414 0.023251,0.0599 0.019969,0.0191 0.036676,0.0409 0.055628,0.0609 0.026556,0.0232 0.055569,0.0441 0.08532,0.0636 0.026844,0.0175 0.055975,0.0329 0.086389,0.0445 0.022939,0.0104 0.045467,0.0203 0.070626,0.0239 0.023948,0.008 0.048892,0.0138 0.073439,0.0205 0.02598,0.0104 0.051626,0.0214 0.076069,0.035 0.022342,0.0155 0.043571,0.0305 0.063435,0.0486 0.020583,0.0183 0.039646,0.0374 0.051621,0.0615 0.01178,0.0204 0.023628,0.0408 0.036938,0.0604 0.015929,0.022 0.020483,0.0479 0.023455,0.0736 0.00257,0.0293 0.0038,0.0584 -0.002,0.0873 -0.00303,0.0239 -0.017919,0.0429 -0.034046,0.061 -0.048462,0.0301 -0.070477,0.0512 -0.118085,0.055 -0.01421,7.7e-4 -0.027471,7.7e-4 -0.041491,0.003 -0.028252,0.007 -0.057281,0.009 -0.086334,0.0104 -0.032901,0.001 -0.065845,0.001 -0.098772,0.001 -0.033465,-1e-5 -0.06693,-5e-5 -0.1003949,-9e-5 -0.032864,-0.001 -0.066183,0.002 -0.098703,-0.002 -0.017592,-0.003 -0.00953,-10e-4 -0.024276,-0.006 0,0 0.082658,-0.0523 0.082658,-0.0523 v 0 c 0.014184,0.003 0.00639,0.001 0.023439,0.005 0.03249,0.003 0.065296,6.1e-4 0.097909,10e-4 0.033459,3e-5 0.06692,9e-5 0.1003789,9e-5 0.032803,-9e-5 0.065635,-9e-5 0.098395,-10e-4 0.028901,-0.002 0.057499,-0.006 0.085768,-0.0116 0.013793,-10e-4 0.02778,-10e-4 0.041497,-0.003 0.03495,-0.006 0.087469,-0.0436 -0.054552,0.0359 0.017114,-0.0129 0.032737,-0.0359 0.036483,-0.0561 0.00648,-0.0281 0.00589,-0.0562 0.00333,-0.0848 -0.00247,-0.0246 -0.00603,-0.0489 -0.02125,-0.07 -0.013479,-0.0199 -0.025644,-0.0407 -0.037597,-0.0614 -0.011215,-0.0232 -0.030275,-0.041 -0.049777,-0.0587 -0.019141,-0.0176 -0.040369,-0.0319 -0.062099,-0.0467 -0.024016,-0.0129 -0.049019,-0.0236 -0.074731,-0.0333 -0.02425,-0.007 -0.048828,-0.0123 -0.072862,-0.0197 -0.025292,-0.006 -0.048335,-0.0158 -0.071846,-0.0256 -0.030645,-0.0126 -0.060447,-0.0279 -0.087574,-0.0462 -0.030072,-0.0204 -0.059965,-0.0411 -0.086509,-0.0655 -0.019058,-0.0203 -0.036371,-0.042 -0.056245,-0.0617 -0.015206,-0.0203 -0.027865,-0.0403 -0.02682,-0.0661 0.00367,-0.0246 0.00921,-0.0487 0.027653,-0.0679 0.028364,-0.0459 0.09134,-0.0673 0.1364177,-0.0923 0.025094,-0.008 0.049958,-0.0172 0.075424,-0.0243 0.030754,-0.008 0.062985,-0.0124 0.09201,-0.0256 0.0313,-0.0131 0.063405,-0.0217 0.098125,-0.0224 0.04668,1e-5 0.093359,2e-5 0.1400371,0 0,0 -0.081039,0.0543 -0.081039,0.0543 z"
       inkscape:connector-curvature="0"
       style="stroke-width:0.01123449" />
    <path
       transform="translate(0,9.1666667e-6)"
       id="path87"
       d="m 1.8978893,292.47682 c 0.021608,0.0358 0.045502,0.0707 0.061914,0.10883 0.018438,0.0372 0.039165,0.0734 0.056505,0.11104 0.014443,0.0287 0.03123,0.0564 0.044777,0.0855 0.010309,0.0272 0.011318,0.0563 0.022582,0.0833 0.013933,0.0246 0.017517,0.0519 0.024113,0.0785 0.009,0.0298 0.013226,0.0604 0.015681,0.0911 0.00194,0.031 0.00192,0.0619 0.00197,0.0928 -0.00365,0.0318 0.010733,0.0437 0.03004,0.0669 0.02173,0.0196 0.036842,0.0438 0.059904,0.0622 0.023565,0.0197 0.05414,0.0284 0.08299,0.0394 0.022582,0.0116 0.044367,0.0243 0.068053,0.0337 0.021896,0.0145 0.046859,0.0199 0.073088,0.0232 0.031966,0.003 0.064131,0.003 0.096212,0.003 0.032173,6.3e-4 0.063626,7.7e-4 0.095105,-0.006 0.032802,-0.0121 0.088069,-0.0367 -0.070785,0.0384 -3.932e-4,2e-4 -0.012883,-0.009 -0.018483,-0.0125 -0.021408,-0.0104 -0.043138,-0.0212 -0.064686,-0.0319 0,0 0.083767,-0.0505 0.083767,-0.0505 v 0 c 0.021849,0.0104 0.04387,0.0211 0.065263,0.0326 0.065753,0.0424 -0.016897,0.0654 -0.07494,0.0799 -0.031867,0.006 -0.064016,0.003 -0.096286,0.003 -0.032378,-1.7e-4 -0.064886,-9e-5 -0.097066,-0.003 -0.026768,-0.003 -0.051772,-0.0116 -0.074651,-0.0251 -0.023209,-0.0104 -0.045109,-0.0226 -0.067893,-0.0335 -0.029711,-0.0116 -0.06088,-0.021 -0.08478,-0.042 -0.022976,-0.0192 -0.039077,-0.0435 -0.06088,-0.0637 -0.018884,-0.0226 -0.037567,-0.0411 -0.033199,-0.0721 -2.34e-5,-0.0308 5.74e-5,-0.0615 -0.00165,-0.0922 -0.00218,-0.0303 -0.00597,-0.0604 -0.014928,-0.0897 -0.00685,-0.0261 -0.00945,-0.0532 -0.023441,-0.0773 -0.011603,-0.027 -0.013287,-0.0555 -0.022436,-0.0831 -0.013366,-0.0292 -0.030363,-0.0568 -0.044737,-0.0855 -0.01729,-0.0378 -0.038117,-0.0741 -0.056655,-0.11126 -0.0159,-0.0378 -0.039614,-0.0719 -0.060881,-0.10709 0,0 0.086423,-0.0467 0.086423,-0.0467 z"
       inkscape:connector-curvature="0"
       style="stroke-width:0.01123449" />
    <path
       transform="translate(0,9.1666667e-6)"
       id="path89"
       d="m 1.8343472,292.86269 c 0.046664,4e-5 0.093328,3e-5 0.1399921,2e-5 0.036784,-0.005 0.073284,-0.0104 0.1102555,-0.013 0.054025,-1.1e-4 0.1344483,-0.0481 -0.00355,0.0238 0.2574155,-0.13441 0.037453,-0.0191 0.028119,-0.0144 -0.00468,0.002 0.00917,-0.006 0.013848,-0.008 0.033334,-0.0174 0.0664,-0.0351 0.1001655,-0.0518 0.024753,-0.0122 -0.097334,0.0516 -0.073115,0.0385 0.032579,-0.0176 0.065464,-0.0346 0.098197,-0.052 0.00437,-0.001 0.00874,-0.003 0.013104,-0.006 0,0 -0.078472,0.0575 -0.078472,0.0575 v 0 c -0.00419,10e-4 -0.00839,0.003 -0.012585,0.006 0.186907,-0.10014 -0.010974,0.006 -0.025411,0.0131 -0.024428,0.0121 0.047783,-0.0258 0.071609,-0.0389 0.0046,-0.002 -0.0093,0.005 -0.013933,0.008 -0.033209,0.0177 -0.066127,0.0359 -0.099589,0.0533 -0.024124,0.0125 0.047714,-0.0258 0.071571,-0.0388 -0.061466,0.0322 -0.1025209,0.0624 -0.1704205,0.0643 -0.037045,0.003 -0.073646,0.009 -0.1107728,0.0123 -0.04668,0 -0.093359,-10e-6 -0.140037,3e-5 0,0 0.08104,-0.0544 0.08104,-0.0544 z"
       inkscape:connector-curvature="0"
       style="stroke-width:0.01123449" />
    <path
       transform="translate(0,9.1666667e-6)"
       id="path91"
       d="m 2.8442156,292.43446 c -0.04627,-0.0119 -0.093688,-0.019 -0.1414655,-0.0229 -0.034099,6.3e-4 -0.068801,0.003 -0.098357,0.0199 0.1459929,-0.0892 0.059811,-0.0233 0.02633,-0.001 -0.021844,0.0158 -0.031493,0.0405 -0.044013,0.0625 -0.012574,0.0239 -0.023441,0.0483 -0.035945,0.0722 -0.017056,0.0184 -0.029435,0.0371 -0.035777,0.0606 -0.00646,0.0237 -0.016684,0.0459 -0.026136,0.0686 -0.00831,0.0234 -0.018628,0.0458 -0.02394,0.07 -0.00305,0.0233 -0.013539,0.0445 -0.00858,0.0679 0.00711,0.0226 0.020567,0.0432 0.033049,0.0636 0.00975,0.0216 0.024719,0.0402 0.039467,0.059 0.015668,0.0209 0.030267,0.0422 0.044302,0.0641 0.01535,0.0174 0.029168,0.0355 0.043502,0.0535 0.017882,0.016 0.041975,0.0237 0.062494,0.0361 0.028363,0.0155 0.052636,0.0364 0.077676,0.056 0.027133,0.0183 0.058088,0.0324 0.089531,0.0433 0.013278,0.003 0.027371,0.008 0.041357,0.006 0.00353,-7.6e-4 0.013147,-0.006 0.00998,-0.005 -0.090758,0.0476 -0.098226,0.0527 -0.064915,0.032 0.023143,-0.0169 0.043095,-0.0371 0.064031,-0.0562 0.018798,-0.0202 0.043149,-0.034 0.061802,-0.0542 0.015423,-0.0209 0.030816,-0.0416 0.048454,-0.0609 0.010561,-0.0116 0.00561,-0.006 0.014793,-0.0179 0,0 0.091652,-0.0373 0.091652,-0.0373 v 0 c -0.00839,0.0137 -0.00369,0.007 -0.014078,0.0194 -0.019076,0.018 -0.034053,0.0394 -0.048661,0.0605 -0.019445,0.0228 -0.040389,0.0344 -0.061348,0.0553 -0.021782,0.0187 -0.041319,0.0393 -0.063423,0.0576 -0.055089,0.0362 -0.099349,0.0752 -0.1628138,0.0519 -0.03203,-0.0121 -0.063931,-0.0263 -0.0913,-0.0459 -0.024721,-0.0193 -0.048792,-0.0398 -0.076926,-0.0548 -0.022042,-0.0122 -0.046764,-0.0212 -0.064524,-0.0391 -0.014386,-0.0183 -0.028794,-0.0364 -0.043972,-0.0543 -0.01388,-0.0216 -0.0283,-0.0427 -0.043833,-0.0633 -0.014942,-0.019 -0.030154,-0.0381 -0.040046,-0.0599 -0.01296,-0.0212 -0.026781,-0.0427 -0.034485,-0.066 -0.00671,-0.025 0.00228,-0.0465 0.00675,-0.0713 0.00466,-0.0249 0.01437,-0.0476 0.023214,-0.0714 0.00858,-0.0227 0.019943,-0.0442 0.026711,-0.0675 0.00525,-0.0243 0.013959,-0.046 0.034663,-0.0628 0.014078,-0.0231 0.023348,-0.0485 0.035898,-0.0723 0.013474,-0.0225 0.022532,-0.0479 0.042259,-0.0663 0.00374,-0.002 0.00748,-0.006 0.011203,-0.008 0.0039,-0.002 0.00808,-0.003 0.011683,-0.006 0.041513,-0.0284 0.057913,-0.0633 0.1219915,-0.0763 0.032061,-0.0133 0.066822,-0.0167 0.1018363,-0.0155 0.048153,0.005 0.095938,0.0121 0.1425619,0.0243 0,0 -0.082644,0.0522 -0.082644,0.0522 z"
       inkscape:connector-curvature="0"
       style="stroke-width:0.01123449" />
    <path
       transform="translate(0,9.1666667e-6)"
       id="path93"
       d="m 2.9942932,292.28067 c -3.937e-4,0.043 -0.00131,0.0859 0.00446,0.12863 0.00469,0.0366 0.021128,0.069 0.038597,0.1013 0.014131,0.0262 0.025387,0.053 0.03599,0.0806 0.00873,0.0274 0.017569,0.0545 0.026503,0.0818 0.00546,0.0261 0.011077,0.0518 0.018115,0.0777 0.00384,0.0268 0.012294,0.0518 0.023527,0.0767 0.010206,0.0249 0.026142,0.0479 0.041587,0.0702 0.013809,0.021 0.024381,0.0436 0.037428,0.0648 0.011226,0.0197 0.018829,0.0413 0.037482,0.0561 0.017146,0.0169 0.039719,0.0256 0.064693,0.0245 0.031331,-0.0144 0.083928,-0.0385 -0.057695,0.0307 -0.00338,0.001 0.006,-0.005 0.00913,-0.006 0.00646,-0.005 0.013117,-0.008 0.01963,-0.0125 0.020259,-0.0119 0.036828,-0.0284 0.056365,-0.0413 0.013425,-0.008 0.026803,-0.0171 0.040004,-0.0258 0,0 0.092808,-0.0349 0.092808,-0.0349 v 0 c -0.011238,0.0116 -0.027095,0.0172 -0.039435,0.0274 -0.021197,0.0104 -0.036091,0.0288 -0.056672,0.0404 -0.020859,0.0158 0.00261,-7.6e-4 -0.019645,0.0124 -0.039812,0.0243 -0.077826,0.0568 -0.1256838,0.0641 -0.02668,-0.002 -0.050183,-0.0116 -0.068675,-0.0299 -0.018545,-0.0163 -0.027987,-0.0377 -0.039105,-0.0587 -0.012963,-0.0212 -0.023488,-0.0436 -0.037167,-0.0644 -0.015677,-0.0229 -0.03203,-0.0462 -0.042419,-0.0716 -0.011444,-0.0253 -0.020798,-0.0507 -0.024273,-0.0779 -0.00691,-0.0257 -0.013263,-0.0512 -0.017891,-0.0773 -0.00872,-0.0272 -0.017937,-0.0541 -0.026234,-0.0814 -0.010607,-0.0271 -0.021274,-0.0539 -0.035413,-0.0796 -0.017907,-0.0334 -0.034968,-0.0665 -0.040165,-0.10408 -0.00608,-0.0431 -0.00569,-0.0862 -0.00508,-0.12962 0,0 0.089253,-0.042 0.089253,-0.042 z"
       inkscape:connector-curvature="0"
       style="stroke-width:0.01123449" />
    <path
       transform="translate(0,9.1666667e-6)"
       id="path101"
       d="m 3.4956498,292.29608 c 0.00369,0.0429 0.011564,0.0852 0.022643,0.12692 0.015639,0.0424 0.0313,0.0847 0.050168,0.12595 0.015339,0.0363 0.037052,0.0694 0.056342,0.10396 0.013101,0.0256 0.026011,0.0507 0.032516,0.0785 0.00812,0.0265 0.015461,0.0531 0.027933,0.0782 0.015116,0.0272 0.021459,0.057 0.025126,0.0872 0.00284,0.0308 0.00276,0.0617 0.00276,0.0925 -0.00292,0.0282 0.00423,0.0552 0.00946,0.0825 0.00222,0.0276 0.00787,0.0544 0.013871,0.0814 0.00592,0.0177 0.00284,0.009 0.0093,0.0266 0,0 -0.087726,0.0446 -0.087726,0.0446 v 0 c -0.00662,-0.0183 -0.00338,-0.009 -0.00988,-0.0277 -0.00585,-0.0271 -0.012464,-0.0538 -0.014008,-0.0816 -0.00515,-0.0279 -0.013294,-0.0553 -0.010229,-0.084 2.2e-6,-0.0306 1.768e-4,-0.0611 -0.00231,-0.0916 -0.00323,-0.0292 -0.00885,-0.0581 -0.023581,-0.0845 -0.012925,-0.0258 -0.020537,-0.0528 -0.029032,-0.0801 -0.00585,-0.0272 -0.018514,-0.0513 -0.031177,-0.0764 -0.019329,-0.0348 -0.041234,-0.068 -0.056688,-0.10454 -0.019068,-0.0417 -0.034937,-0.0844 -0.050899,-0.12723 -0.011525,-0.0423 -0.019329,-0.0854 -0.023858,-0.12885 0,0 0.089252,-0.0419 0.089252,-0.0419 z"
       inkscape:connector-curvature="0"
       style="stroke-width:0.01123449" />
    <path
       transform="translate(0,9.1666667e-6)"
       id="path103"
       d="m 3.5389607,292.30783 c 0.046663,3e-5 0.093328,2e-5 0.1399916,10e-6 0.034422,-0.003 0.067376,0.005 0.1009613,0.0104 0.026641,0.007 0.045117,0.0239 0.056381,0.0467 0.011709,0.0226 0.029625,0.0416 0.042787,0.0635 0.01055,0.0233 0.017208,0.048 0.028371,0.0711 0.012564,0.021 0.025465,0.0405 0.032354,0.0637 0.0111,0.0238 0.017208,0.0486 0.020667,0.0743 0.00407,0.0327 0.00353,0.0651 -0.00116,0.0977 -0.00307,0.0299 -0.013709,0.0577 -0.031608,0.0826 -0.013678,0.0191 -0.031216,0.0345 -0.051137,0.0479 -0.2488365,0.13395 -0.013201,0.007 -0.011518,0.007 0.00836,7.7e-4 0.015816,0.006 0.023519,0.009 0.031331,0.0134 0.056442,0.0322 0.079316,0.0557 0.024711,0.0261 0.042587,0.0556 0.058911,0.0867 0.014508,0.0254 0.028332,0.0512 0.044241,0.0758 0.012971,0.0202 0.019344,0.0429 0.030947,0.0637 9.225e-4,7.7e-4 0.00216,0.003 0.00276,0.002 0.012516,-0.0211 -0.066714,0.0229 -0.086104,0.0314 0,0 0.088756,-0.0429 0.088756,-0.0429 v 0 c -0.039551,0.0304 -0.062255,0.0884 -0.092453,0.0549 -0.011533,-0.0206 -0.018037,-0.0431 -0.030616,-0.0633 -0.016008,-0.0249 -0.030009,-0.051 -0.04464,-0.0766 -0.015847,-0.0303 -0.03323,-0.059 -0.05745,-0.0844 -0.022135,-0.0225 -0.046985,-0.04 -0.077213,-0.0526 -0.00338,-10e-4 -0.039497,-0.0166 -0.031662,-0.0224 0.034691,-0.0256 0.1844541,-0.10524 0.010126,-0.0104 0.018914,-0.0139 0.039412,-0.0255 0.052237,-0.0454 0.019875,-0.0222 0.030285,-0.0498 0.033746,-0.0785 0.005,-0.0319 0.00631,-0.0635 0.0023,-0.0956 -0.00307,-0.0253 -0.00872,-0.0497 -0.020021,-0.0731 -0.00631,-0.0231 -0.01936,-0.0417 -0.031546,-0.0625 -0.011238,-0.0227 -0.017991,-0.0472 -0.027948,-0.0704 -0.013263,-0.022 -0.031532,-0.0413 -0.043233,-0.0642 -0.00974,-0.0205 -0.026995,-0.0342 -0.051129,-0.0391 -0.033169,-0.006 -0.065969,-0.0116 -0.099934,-0.008 -0.046678,0 -0.093357,-3e-5 -0.1400369,10e-6 0,0 0.08104,-0.0544 0.08104,-0.0544 z"
       inkscape:connector-curvature="0"
       style="stroke-width:0.01123449" />
    <path
       transform="translate(0,9.1666667e-6)"
       id="path105"
       d="m 4.2643964,292.17279 c -1.323e-4,0.0417 0.00772,0.0831 0.011871,0.12458 0.00446,0.0351 0.00216,0.0705 0.00654,0.10547 0.00623,0.0308 0.010665,0.0619 0.01307,0.0933 -0.00261,0.0344 0.015955,0.0622 0.030808,0.0923 0.014017,0.0293 0.018091,0.061 0.020382,0.0926 -8.457e-4,0.0346 0.011456,0.0658 0.029216,0.0957 0.015631,0.0272 0.034522,0.0517 0.049054,0.0795 0.011694,0.0341 0.020859,0.068 0.037598,0.10049 0.0163,0.0287 0.040742,0.0452 0.070921,0.06 0.028755,0.0122 0.06041,0.014 0.09155,0.0153 0.03323,7.7e-4 0.066476,6.3e-4 0.099713,4.2e-4 0.013747,-0.003 0.028494,-0.003 0.042041,-0.008 0.00407,-10e-4 0.015485,-0.007 0.011763,-0.005 -0.086426,0.0452 -0.095212,0.052 -0.063724,0.0301 0.035929,-0.0335 0.072604,-0.0454 0.1223146,-0.0716 0.00338,-0.001 0.013255,-0.008 0.00987,-0.006 -0.025672,0.0131 -0.051175,0.0263 -0.076763,0.0396 0.014624,-0.0127 0.029578,-0.0248 0.045586,-0.0359 0.00508,-0.006 -0.00923,-0.0116 -0.013017,-0.0133 0,0 0.084412,-0.0498 0.084412,-0.0498 v 0 c 0.010183,0.007 0.021174,0.0138 0.020697,0.0267 -0.00608,0.0116 -0.035322,0.0248 -0.044833,0.0378 -0.031324,0.0177 -0.062532,0.0357 -0.093975,0.0532 -0.0033,10e-4 -0.013678,0.007 -0.010344,0.006 0.024926,-0.0138 0.050037,-0.0275 0.075103,-0.041 0.00454,-0.002 -0.02811,0.0166 -0.026003,0.0209 -0.050007,0.0357 -0.1010267,0.0678 -0.1641377,0.071 -0.033354,1.3e-4 -0.066722,4.3e-4 -0.100052,-7.5e-4 -0.032285,-0.001 -0.06483,-0.005 -0.094087,-0.0187 -0.031377,-0.0162 -0.05705,-0.0349 -0.074142,-0.0649 -0.016831,-0.0324 -0.026726,-0.0662 -0.037605,-0.10048 -0.014455,-0.0276 -0.033269,-0.052 -0.048769,-0.079 -0.018376,-0.0308 -0.032161,-0.0635 -0.031347,-0.0993 -0.00193,-0.0306 -0.00523,-0.0612 -0.01863,-0.0896 -0.0152,-0.0308 -0.035091,-0.0598 -0.03253,-0.0953 -0.00216,-0.0312 -0.00631,-0.0621 -0.012794,-0.0928 -0.00515,-0.035 -0.00222,-0.0707 -0.00662,-0.10582 -0.00407,-0.0418 -0.011933,-0.0833 -0.012348,-0.12529 0,0 0.089253,-0.0419 0.089253,-0.0419 z"
       inkscape:connector-curvature="0"
       style="stroke-width:0.01123449" />
    <path
       transform="translate(0,9.1666667e-6)"
       id="path107"
       d="m 4.0578304,292.49752 c 0.042849,0.0116 0.084051,0.0261 0.1277136,0.0347 0.033476,0.006 0.066629,0.008 0.1000532,0.002 0.028371,-0.005 0.056527,-0.008 0.084283,-0.0148 -0.014624,0.0148 0.078742,-0.0337 0.056127,-0.0214 -0.1243529,0.0673 -0.086982,0.046 -0.059195,0.0301 0.050122,-0.0332 0.1025312,-0.0664 0.1606802,-0.086 0.0043,-0.002 0.00853,-0.003 0.012809,-0.006 0,0 -0.078252,0.0577 -0.078252,0.0577 v 0 c -0.00446,10e-4 -0.00886,0.003 -0.013301,0.006 -0.039597,0.0158 -0.019283,0.008 0.058264,-0.0336 0.00423,-0.002 -0.00833,0.005 -0.012556,0.007 -0.013801,0.008 -0.010389,0.005 -0.023066,0.0136 -0.00384,0.003 -0.00745,0.006 -0.011181,0.009 -0.054059,0.0306 -0.1075608,0.0662 -0.1697643,0.0809 -0.02791,0.007 -0.056649,0.008 -0.084851,0.0141 -0.034222,0.005 -0.068483,10e-4 -0.1023156,-0.006 -0.043579,-0.009 -0.085,-0.0243 -0.1280942,-0.0351 0,0 0.082644,-0.0522 0.082644,-0.0522 z"
       inkscape:connector-curvature="0"
       style="stroke-width:0.01123449" />
    <rect
       transform="translate(0,9.1666667e-6)"
       id="rect129"
       width="0.14615795"
       height="3.0546205"
       x="0.8272559"
       y="293.95065"
       ry="0.025007345"
       style="stroke-width:0.01205326" />
    <rect
       transform="translate(0,9.1666667e-6)"
       id="rect131"
       width="0.092799418"
       height="3.7170486"
       x="4.4444962"
       y="293.29788"
       ry="0.024537118"
       style="stroke-width:0.01193941" />
  </g>
</svg>
