<?xml version="1.0" standalone="no"?>
<!DOCTYPE svg PUBLIC "-//W3C//DTD SVG 20010904//EN"
 "http://www.w3.org/TR/2001/REC-SVG-20010904/DTD/svg10.dtd">
<svg version="1.0" xmlns="http://www.w3.org/2000/svg"
 width="1280.000000pt" height="640.000000pt" viewBox="0 0 1280.000000 640.000000"
 preserveAspectRatio="xMidYMid meet">
<g transform="translate(0.000000,640.000000) scale(0.100000,-0.100000)"
fill="#0e2369" stroke="none">
<path d="M11081 5143 c-101 -4 -103 -4 -97 -26 19 -65 19 -84 -3 -90 -21 -5
-21 -8 -16 -139 10 -215 45 -1391 43 -1394 -2 -1 -139 -5 -304 -9 l-302 -8 -7
-336 c-4 -185 -10 -408 -14 -496 l-6 -160 -27 -3 -28 -3 0 745 0 746 -65 0
-65 0 0 60 c0 59 0 59 -32 64 -18 3 -126 7 -239 10 -166 5 -208 3 -212 -7 -3
-8 -8 -43 -12 -80 l-7 -66 -55 -21 c-29 -11 -57 -20 -62 -20 -10 0 -21 -74
-21 -141 l0 -48 -65 19 -65 19 0 -26 c0 -24 -1 -25 -51 -18 -102 14 -104 15
-100 68 l3 47 -88 0 -87 0 7 83 c3 45 9 134 12 198 l7 116 -74 6 c-41 2 -75 4
-77 2 -2 -2 -9 -92 -15 -201 l-12 -199 -47 -3 c-42 -3 -49 -6 -53 -28 -17 -81
-9 -74 -80 -74 l-65 0 0 -477 1 -478 -66 -3 -65 -3 0 -104 0 -105 -74 0 c-40
0 -88 -3 -105 -6 -30 -6 -31 -5 -31 28 0 31 -4 37 -40 53 l-40 18 0 80 0 79
-40 -4 -41 -4 6 336 c3 184 8 363 11 398 l5 63 -33 13 c-18 7 -70 24 -115 37
-81 23 -83 25 -83 55 0 20 -9 39 -29 58 -26 25 -35 28 -75 24 -43 -5 -46 -4
-46 17 0 50 -12 86 -28 80 -12 -5 -14 3 -9 47 6 63 -5 78 -60 78 -51 0 -60 17
-68 128 l-8 91 -28 -15 c-28 -14 -29 -14 -29 8 -1 18 -28 364 -30 376 0 1 -33
2 -74 2 l-73 0 -6 -67 c-4 -38 -7 -102 -7 -144 0 -42 -3 -111 -7 -154 -6 -74
-7 -78 -36 -87 -29 -11 -29 -12 -24 -69 l5 -59 -39 0 -39 0 0 -70 0 -70 -30 0
-30 0 -2 -207 -3 -208 -185 -6 c-102 -4 -186 -7 -187 -8 -1 0 -5 -21 -9 -46
-5 -36 -10 -45 -26 -45 -18 0 -19 -6 -14 -117 10 -202 15 -783 6 -700 -5 53
-13 82 -24 90 -14 10 -14 21 -6 72 5 33 10 63 10 66 0 4 -57 10 -126 14 l-126
8 6 66 c4 36 9 87 12 114 l6 47 -101 0 -102 0 6 93 c4 50 8 97 10 104 2 7 -14
26 -36 44 l-40 31 7 73 7 73 -64 6 c-35 3 -162 7 -281 10 l-218 4 0 -59 0 -59
-35 0 c-31 0 -35 -3 -46 -40 -9 -28 -18 -40 -31 -40 -17 0 -18 -14 -18 -250 0
-137 -2 -250 -4 -250 -1 0 -16 5 -33 10 l-30 11 -6 142 c-4 78 -7 181 -7 230
0 63 -3 87 -12 87 -7 0 -47 -5 -88 -10 -41 -6 -87 -8 -102 -4 -25 5 -28 10
-28 45 0 39 0 39 -40 39 -39 0 -40 1 -40 33 l0 34 -122 6 c-66 4 -147 7 -180
7 l-58 0 0 55 0 55 -77 0 -76 0 6 560 c3 308 3 560 0 560 -17 0 -339 53 -346
57 -4 3 -41 7 -82 9 -62 4 -75 2 -75 -10 0 -17 -8 -19 -104 -36 l-68 -13 6
-86 c3 -47 7 -243 8 -436 l2 -350 -35 3 c-19 1 -88 7 -154 12 -186 15 -165 26
-165 -89 0 -67 -4 -101 -12 -103 -10 -4 -20 -275 -27 -745 -1 -40 -3 -43 -29
-43 -31 0 -232 37 -240 44 -2 3 6 35 18 71 12 36 20 68 19 70 -8 7 -166 7
-222 0 l-57 -8 0 267 0 267 -36 32 c-20 18 -63 49 -96 69 -85 53 -87 54 -90
111 l-3 52 -122 3 -122 3 -7 -28 c-18 -83 -26 -101 -56 -129 l-33 -31 -225 13
-225 12 -28 -31 c-15 -18 -32 -38 -38 -45 -14 -17 -29 -6 -29 24 0 23 -2 24
-52 19 -29 -2 -165 -10 -303 -16 -137 -6 -251 -12 -251 -13 -1 0 4 -172 12
-381 7 -209 13 -404 14 -432 l0 -53 -167 0 -166 0 7 123 6 122 -103 -3 -104
-4 -6 183 c-4 100 -7 349 -7 553 l-1 371 -83 180 -82 180 -40 9 -40 8 -12 147
c-7 80 -12 183 -12 227 0 93 0 94 -85 94 -88 0 -85 6 -85 -145 0 -179 -10
-315 -24 -316 -6 0 -73 -76 -148 -168 l-137 -168 -7 -1112 -7 -1112 -76 -42
-76 -43 -3 -257 -2 -257 6296 0 6295 0 46 27 c34 20 57 26 89 24 40 -2 44 0
44 22 0 14 7 30 15 37 21 18 21 120 0 120 -13 0 -14 18 -10 128 12 291 26
1275 18 1282 -4 4 -52 20 -106 36 -115 32 -117 31 -117 -58 l0 -58 -107 0
c-60 0 -132 3 -160 6 l-53 7 0 84 c0 81 -1 84 -21 78 -18 -6 -20 -4 -14 28 l7
34 -79 -13 c-43 -7 -90 -15 -105 -18 -27 -5 -28 -4 -28 39 0 36 -3 45 -17 44
-10 0 -76 -6 -146 -13 -71 -6 -130 -9 -132 -6 -1 3 -3 66 -4 140 -3 425 -23
1759 -27 1838 l-6 92 -246 -2 c-136 -1 -294 -4 -351 -5z m449 -225 c0 -46 3
-120 7 -165 l6 -83 -40 0 -40 0 -7 78 c-3 42 -9 116 -12 165 l-7 87 47 0 46 0
0 -82z m-237 -70 c4 -29 9 -93 12 -143 3 -49 8 -111 11 -137 l6 -48 58 0 c31
0 71 -3 88 -6 l30 -6 6 -92 c3 -50 8 -279 11 -508 l5 -417 -97 -3 -98 -3 -3
-147 c-2 -123 -5 -148 -17 -148 -13 0 -15 26 -15 159 l0 159 -48 7 c-26 3 -53
9 -59 13 -7 5 -13 215 -18 690 l-8 682 66 0 65 0 5 -52z m-6744 -358 c12 0 13
-97 7 -637 -3 -351 -9 -772 -12 -937 l-7 -299 -60 7 c-33 3 -62 8 -64 10 -3 2
-11 332 -18 733 -8 400 -17 823 -20 939 l-7 212 83 -14 c46 -7 90 -14 98 -14z
m-331 -410 c-2 -329 -2 -335 -8 -140 -10 294 -10 574 1 525 4 -22 7 -195 7
-385z m-3570 157 c6 -7 35 -64 64 -127 l53 -115 3 -502 c2 -277 0 -503 -5
-503 -4 -1 -28 -5 -53 -10 -29 -5 -61 -5 -88 2 -23 6 -45 8 -48 5 -16 -16 -35
-243 -41 -483 l-6 -271 53 -69 52 -69 -6 -110 c-4 -60 -9 -135 -12 -166 l-6
-56 -38 8 c-31 7 -177 58 -241 84 -15 6 -16 98 -11 1083 l5 1077 96 117 96
118 61 0 c38 0 66 -5 72 -13z m9390 -359 l3 -68 64 0 65 0 0 -492 c0 -426 -26
-1763 -35 -1794 -3 -12 -138 1 -383 36 -78 11 -144 20 -146 20 -1 0 -6 300 -9
668 -4 367 -10 812 -14 989 l-6 322 48 -15 c78 -23 75 -26 75 84 0 53 3 113 6
133 6 33 10 37 61 53 59 19 58 18 68 89 l6 48 97 -3 97 -3 3 -67z m-2484 -345
c4 -109 8 -386 8 -616 l1 -419 33 7 34 6 0 -130 0 -129 -82 -19 c-72 -16 -83
-22 -89 -43 -4 -14 -7 -177 -8 -362 l-1 -338 -32 0 c-65 0 -61 -88 -53 1123
l8 1106 21 4 c11 2 51 5 87 6 l66 1 7 -197z m-3490 -360 c3 -236 8 -526 11
-645 l6 -217 -23 -3 c-13 -2 -24 -9 -24 -15 -1 -7 -2 -191 -3 -408 l-1 -395
-34 0 -35 0 5 108 c2 59 9 332 14 607 6 275 15 686 21 912 5 227 7 429 3 448
-6 34 -5 35 24 35 l30 0 6 -427z m5030 360 c3 -21 6 -77 6 -125 0 -83 -1 -88
-22 -92 -28 -6 -186 -26 -205 -26 -10 0 -13 29 -13 135 l0 134 68 4 c175 9
159 12 166 -30z m304 20 c19 -4 22 -12 22 -50 l0 -46 -37 7 c-21 3 -55 6 -75
6 l-38 0 0 51 0 52 53 -7 c28 -4 62 -10 75 -13z m-1346 -62 c4 -4 5 -163 1
-354 -6 -333 -7 -347 -25 -347 -16 0 -19 -7 -18 -42 3 -64 2 -68 -20 -68 -12
0 -20 7 -20 18 0 9 7 170 15 357 8 187 15 366 15 398 0 56 1 58 23 52 12 -4
25 -10 29 -14z m-5633 -58 c3 -2 -6 -11 -20 -21 l-24 -17 40 -5 40 -5 3 -275
c2 -151 0 -370 -3 -487 l-7 -212 -28 -9 -27 -10 -6 187 c-4 102 -7 231 -7 286
l0 100 -64 23 -64 23 -6 117 c-3 64 -8 163 -11 219 l-6 103 93 -6 c51 -4 95
-9 97 -11z m6848 -70 c-2 -16 -4 -3 -4 27 0 30 2 43 4 28 2 -16 2 -40 0 -55z
m-7377 -121 l0 -167 -121 -60 -121 -60 7 -108 c7 -106 6 -107 -17 -116 l-23
-8 -12 336 c-6 184 -10 337 -8 339 5 5 278 19 288 14 4 -2 7 -78 7 -170z m922
-257 c-2 -219 -5 -402 -8 -404 -3 -3 -48 -8 -100 -11 l-94 -5 0 30 c0 17 7
179 15 360 8 182 15 354 15 383 l0 53 88 -3 87 -3 -3 -400z m-743 243 c-1
-108 -4 -131 -9 -93 -12 75 -12 235 0 235 6 0 10 -53 9 -142z m928 -243 c0
-212 -4 -385 -8 -385 -5 0 -9 173 -9 385 0 213 4 385 9 385 5 0 8 -172 8 -385z
m8128 337 c-3 -11 -6 -71 -8 -135 -2 -105 0 -118 18 -135 11 -10 26 -17 33
-14 6 2 12 -3 12 -12 0 -13 -12 -15 -64 -14 -85 3 -141 -22 -157 -69 -6 -19
-10 -86 -10 -149 l2 -114 -53 0 c-29 0 -58 -4 -65 -8 -8 -5 -11 -151 -10 -574
1 -311 0 -569 -3 -572 -3 -2 -51 -8 -108 -12 l-102 -7 0 154 c0 85 -7 255 -15
379 -30 465 -27 440 -52 440 -14 0 -15 13 -10 113 4 61 10 253 13 424 l7 313
166 3 c91 1 221 4 289 5 116 2 123 1 117 -16z m433 -329 c-1 -186 2 -371 6
-410 l8 -73 -48 0 -47 0 6 195 c3 118 2 197 -4 200 -5 4 -9 95 -9 216 l0 209
45 0 44 0 -1 -337z m-4368 -280 c0 -329 -3 -735 -7 -903 l-6 -305 -63 3 -63 4
-5 41 c-3 23 -10 168 -16 322 -15 412 -18 445 -40 445 -16 0 -19 12 -24 103
-11 207 -17 787 -8 787 5 0 12 19 16 42 4 23 12 46 19 50 7 4 54 8 105 8 l92
0 0 -597z m-1103 581 c90 -11 47 -24 -78 -24 -99 0 -119 3 -119 15 0 12 15 15
73 15 39 0 96 -3 124 -6z m-1019 -101 l-3 -38 43 -3 c36 -3 42 -6 42 -26 0
-17 7 -26 24 -30 29 -7 36 -52 36 -256 l0 -145 -120 -1 -120 -1 0 146 c0 80
-3 190 -7 244 l-6 97 39 0 c44 0 73 13 55 24 -16 10 -13 26 5 26 12 0 15 -9
12 -37z m4082 -53 c0 -15 7 -20 29 -20 16 0 31 -6 35 -15 4 -12 25 -15 97 -15
l92 0 -7 -282 c-3 -156 -9 -497 -12 -760 l-7 -476 -136 -6 c-75 -4 -160 -9
-190 -12 l-53 -6 7 664 c4 364 10 724 14 798 l6 135 40 6 c76 12 85 10 85 -11z
m-3060 -369 l0 -339 -27 -6 c-16 -3 -58 -11 -95 -17 -61 -10 -67 -13 -71 -37
-2 -15 -5 15 -6 66 l-1 92 -55 0 -55 0 0 79 c0 44 -4 83 -10 86 -11 7 -14 293
-4 369 l7 46 158 0 159 0 0 -339z m-708 152 c5 -137 4 -163 -6 -152 -8 9 -15
299 -7 299 4 0 11 -66 13 -147z m-599 50 c4 -43 9 -124 13 -180 l7 -103 -47 0
-46 0 0 68 c0 37 3 118 7 180 l6 112 27 0 c27 0 27 -1 33 -77z m-2651 -108 c8
3 30 -1 49 -9 l36 -15 6 -435 c4 -239 4 -550 0 -691 l-6 -255 -82 0 -82 0 -6
233 c-4 127 -7 300 -7 382 0 83 -3 207 -7 277 l-6 128 -161 2 -161 3 -3 51 -3
50 52 12 c32 8 61 22 76 38 21 23 23 34 23 129 l0 105 46 28 45 29 89 -34 c49
-18 95 -31 102 -28z m4248 -116 l0 -109 105 0 c103 0 137 -11 73 -24 -18 -4
-75 -9 -125 -13 l-93 -6 0 -34 c0 -33 -1 -33 -45 -33 l-45 0 0 163 c0 90 2
166 4 168 2 2 32 2 65 1 l61 -4 0 -109z m5437 73 c19 -12 22 -80 28 -678 l6
-562 -41 -4 -40 -4 0 468 c0 409 -2 468 -15 468 -13 0 -15 21 -15 129 0 71 -3
143 -6 160 -6 30 -6 31 32 31 22 0 44 -4 51 -8z m-534 -23 l37 -10 0 -218 0
-218 122 -6 c67 -4 124 -9 126 -12 3 -3 8 -178 11 -390 l6 -385 -30 -5 c-33
-5 -464 -25 -532 -25 l-43 0 0 490 0 490 54 0 c91 0 87 -6 80 145 -4 73 -4
140 -1 148 5 12 18 14 69 10 35 -3 80 -9 101 -14z m-8073 -1 c0 -30 -13 -58
-26 -58 -14 0 -20 51 -7 63 11 12 33 8 33 -5z m8881 -165 c-2 -98 4 -363 14
-590 10 -227 15 -419 12 -428 -5 -11 -21 -15 -57 -15 l-50 0 2 597 3 597 25 7
c58 16 56 24 51 -168z m-11119 25 c-2 -57 -6 -105 -8 -107 -2 -2 -19 0 -39 3
l-35 7 0 99 0 100 43 0 44 0 -5 -102z m11533 -10 c4 -4 3 -47 -2 -95 -6 -48
-9 -89 -8 -91 2 -2 33 4 70 13 37 8 70 14 72 12 4 -5 -16 -960 -21 -965 -3 -2
-79 13 -169 34 l-165 37 -6 121 c-3 67 -9 307 -12 535 l-7 413 121 -3 c66 -2
124 -7 127 -11z m-8845 -74 c0 -53 0 -54 -30 -54 -30 0 -30 0 -30 58 l0 59 30
-5 c29 -4 30 -6 30 -58z m1954 2 c3 -12 6 -54 6 -93 l0 -73 -35 0 c-35 0 -35
0 -35 44 0 23 -3 70 -6 104 l-7 61 36 -11 c22 -7 38 -19 41 -32z m3207 -111
c4 -82 10 -315 13 -516 l7 -367 -44 11 -44 10 -6 121 c-4 66 -10 296 -13 509
l-7 388 44 -3 44 -3 6 -150z m-3601 105 c0 -16 -4 -30 -8 -30 -5 0 -7 14 -4
30 2 17 6 30 8 30 2 0 4 -13 4 -30z m-1847 -152 c4 -90 10 -339 14 -554 l6
-391 -127 -8 c-70 -4 -129 -5 -130 -4 -2 2 -7 223 -11 492 -7 430 -6 487 8
487 8 0 17 8 20 18 2 11 17 21 34 25 42 8 103 46 103 64 0 11 6 14 21 10 12
-3 22 0 26 9 3 8 11 14 18 14 9 0 14 -43 18 -162z m4802 110 c14 -6 25 -16 25
-22 0 -6 -7 -96 -15 -200 -8 -105 -12 -192 -9 -195 3 -4 26 -13 52 -22 44 -15
47 -18 45 -50 -1 -19 -5 -85 -9 -146 -3 -62 -8 -113 -9 -113 -2 0 -34 18 -71
39 l-67 39 2 279 c2 236 13 403 27 403 1 0 15 -5 29 -12z m-3306 -14 c85 -5
112 -4 107 4 -5 8 6 12 35 12 l42 0 -6 -68 -7 -68 63 -13 c34 -7 80 -12 102
-12 22 0 51 1 65 1 14 0 34 1 45 3 17 2 20 -5 23 -40 2 -30 9 -46 23 -53 10
-6 19 -20 19 -32 0 -20 4 -20 64 -14 l63 6 -5 -137 c-2 -76 -8 -140 -13 -143
-4 -3 -13 -111 -19 -240 -6 -129 -13 -239 -14 -245 -3 -11 -344 -10 -624 2
l-152 6 5 441 c3 242 8 479 11 525 l6 83 27 -5 c15 -3 78 -9 140 -13z m-3381
-1 c-16 -2 -40 -2 -55 0 -16 2 -3 4 27 4 30 0 43 -2 28 -4z m1372 -129 c0 -20
9 -29 46 -46 l47 -20 -7 -97 c-3 -53 -6 -242 -6 -420 l0 -323 -132 6 c-73 4
-154 9 -180 12 l-47 6 -3 108 c-4 127 -10 120 114 120 l77 0 7 47 c4 26 4 176
0 333 -4 157 -4 289 0 293 4 4 25 7 46 7 34 0 38 -3 38 -26z m5713 -41 c4 -38
7 -211 7 -387 l0 -318 -23 6 c-12 3 -45 10 -72 16 l-50 11 0 255 0 256 -32 13
-33 14 0 95 0 95 53 4 c28 2 73 4 98 5 l46 2 6 -67z m-7473 32 c0 -8 5 -15 10
-15 10 0 15 -831 5 -841 -5 -6 -173 15 -180 22 -2 3 -8 190 -11 416 l-7 411
34 6 c70 11 85 13 117 15 22 1 32 -3 32 -14z m3437 -9 c0 0 -1 -200 -4 -443
l-6 -443 -59 0 -59 0 1 444 c1 244 3 446 6 448 3 4 116 -2 121 -6z m1202 -156
l2 -160 -41 0 -41 0 2 160 2 160 38 0 37 0 1 -160z m750 145 c2 -2 -7 -18 -20
-36 l-23 -32 47 6 c39 6 47 4 47 -9 0 -13 9 -15 41 -12 l42 4 -6 -91 c-9 -128
-6 -135 54 -135 l49 0 -2 -267 -3 -268 -230 -12 c-126 -6 -267 -12 -312 -12
l-83 -1 0 279 c0 211 -3 280 -12 283 -8 3 -14 32 -16 80 l-4 75 32 7 c72 14
86 9 126 -46 l39 -52 10 34 c5 19 13 40 16 45 4 6 21 48 39 94 l32 83 67 -7
c36 -4 68 -9 70 -10z m-4983 -8 c3 -2 11 -173 19 -378 8 -206 16 -405 18 -442
l3 -69 -36 5 c-19 3 -79 11 -132 18 l-98 11 0 436 0 435 110 -5 c61 -3 113 -8
116 -11z m378 -239 c3 -123 7 -319 9 -435 l4 -213 -88 0 c-84 0 -89 1 -93 23
-7 35 -26 558 -26 710 l0 137 94 0 94 0 6 -222z m8486 60 c0 -158 13 -448 26
-595 l6 -73 -47 0 -48 0 6 188 c4 103 7 289 7 415 l0 227 25 0 25 0 0 -162z
m-7825 -38 c4 -60 4 -141 0 -180 -8 -76 -1 -69 -82 -85 -16 -3 -36 -8 -45 -11
-17 -5 -18 6 -18 124 0 144 -1 142 70 142 l37 0 7 60 c4 33 11 60 15 60 5 0
12 -49 16 -110z m1105 -55 l0 -125 -55 0 -55 0 0 105 c0 58 0 108 -1 113 0 6
69 29 99 31 9 1 12 -30 12 -124z m4117 9 c23 -6 25 -20 39 -276 l6 -116 36 -7
c47 -8 91 -8 168 0 56 7 65 5 130 -28 62 -31 72 -40 84 -76 l13 -40 -54 -50
c-51 -48 -57 -50 -109 -50 -67 0 -447 33 -454 39 -2 3 -8 134 -12 291 l-7 286
44 15 c49 17 83 21 116 12z m-1883 -401 c-4 -115 -7 -209 -8 -210 -4 -5 -221
-5 -218 1 1 3 2 98 2 211 l0 205 115 0 115 0 -6 -207z m-2242 -33 l-3 -170
-27 0 c-15 0 -36 -3 -47 -6 -20 -5 -20 0 -21 170 l-1 176 51 0 51 0 -3 -170z
m-1231 -151 c-7 -33 -9 -7 -9 101 l1 145 8 -101 c5 -56 5 -121 0 -145z m-2055
162 c71 -16 180 -48 242 -72 l112 -42 0 -74 0 -73 -280 0 -280 0 0 135 c0 178
-6 174 206 126z m8163 -257 c2 -2 -26 -4 -62 -4 l-67 0 0 33 c0 19 3 36 6 40
4 4 99 -49 123 -69z m1170 0 c2 -2 -32 -4 -77 -4 -50 0 -82 4 -82 10 0 10 148
4 159 -6z"/>
</g>
</svg>
